<svg xmlns="http://www.w3.org/2000/svg" width="11221" height="10064" viewBox="0 0 6111.52 5481.66" shape-rendering="geometricPrecision" text-rendering="geometricPrecision" image-rendering="optimizeQuality" fill-rule="evenodd" clip-rule="evenodd"><defs><style>.fil0{fill:#e31e24}</style></defs><g id="Слой_x0020_1"><path class="fil0" d="M4637.02 2020.33c-3.69-22.92-17.59-39-24.75-58.06-.99-2.6-3.54-4.77-4.03-7.38-2.94-15.82-15.62-22.26-27.1-30.35-2.25 2.04-4.12 3.17-5.22 4.81-15.05 22.38-33.75 41.46-53.46 59.66-3.61 3.34-7.87 6.54-10.12 10.73-14.81 27.78-38.97 48-57.9 72.44-14.74 19-31.16 36.41-50.21 51.13-29.51 22.82-59.62 44.3-95.04 57.85-29.13 11.14-56.35 8.95-83.7-4.12-6.28-3-13.04-5.09-19.08-8.49-7.87-4.42-15.41-9.06-22.34-15.41-6.14-5.64-11.84-10.82-16.58-17.92-12.46-18.7-19.71-39.02-20.58-61.21-.6-15.29 1.08-30.67 1.79-46.74-2-2.09-4.3-.55-6.27 1.55-21.88 23.5-48.18 41.04-75.78 56.9-28.98 16.65-59.86 24.96-93.22 19.31-14.48-2.47-28.8-6.69-42.64-11.66-5.2-1.87-8.84-8.13-13.86-13.04-5 1.03-11.1 2.92-17.32 3.41-6.23.48-12.83.62-18.8-.9-16.78-4.26-20.7-9.03-21.25-26.68-.28-9.01.33-18.46 2.72-27.1 6.42-23.17 15.13-45.48 29.11-65.38 2.83-4.05 5.16-8.48 8.33-12.24 23.35-27.66 40.6-59.25 58.71-90.29 15.39-26.38 27.34-54.08 34.02-83.93 1.06-4.75 1.71-9.7 1.72-14.56.01-9.83-1.78-19.81-.56-29.44 2.07-16.64-5.21-33.11.49-49.21-2.83-2.09-5.09-3.76-8.27-6.12-30.53 8.68-61.27 18.57-85.49 41.58-11.71 11.12-22.16 23.56-33.14 35.44-14.05 15.2-21.74 33.27-28.2 53.02-15.74 48.18-36.48 94.46-58.58 140.16-14.13 29.17-28.59 58.11-45.92 85.49-10.55 16.65-22.48 32.41-33.18 48.96-7.9 12.21-17.94 16.96-31.9 12.79-1.89-13.98-1.81-14.05-12.05-25.17-6.5-7.07-12.59-14.77-20.09-20.61-15.41-11.96-16.11-27.23-10.76-43.52a208.33 208.33 0 0115.14-34.78c12.26-22.35 19.7-46.65 29.69-69.89 6.12-14.23 10.98-29 17.04-43.26 12.39-29.15 24.97-58.24 37.94-87.14 4.97-11.03 8.54-22.07 9.78-34.23 1.71-16.76 4.88-33.38 7.6-50.05 1.4-8.53.93-16.74-3.29-25.5-12.91 5.35-26.02 9.91-35.78 20.91-3.22 3.63-7.37 6.62-11.57 9.14-26.12 15.63-49.86 34.44-72.71 54.39-6.87 6-13.91 12.2-19.17 19.52-11.89 16.58-22.83 33.87-33.96 50.99-5 7.68-9.24 15.84-14.33 23.44-10.58 15.76-23.19 30.34-27.6 49.52-12.42 14.64-13.99 33.44-19.89 50.65-5.01 14.56-11.62 28.6-17.97 42.66-11.01 24.35-22.37 48.54-33.54 72.82-4.72 10.22-9.57 20.26-9.58 32.08-.01 10.07-8.61 15.61-14.09 23.34-2.9 0-5.62-.03-8.36-.01-13.29.11-14.08-.02-17.34 13.06-2.81 11.21-8.43 17.4-20.22 17.21-4.88-11.45-4.88-11.45-16.34-22.37-4.86-12.56-4.31-25.18-3.79-37.95.83-20.2 5.2-39.99 5.93-60.17.08-1.92-.63-3.86-1.08-6.49-2.33.68-5.03.63-5.85 1.85-17.59 25.99-40.55 46.72-64.72 66.25-3.83 3.09-8.37 5.38-11.88 8.76-13.69 13.16-30.78 16.69-48.68 16.62-11.92-.06-23.89-1.81-35.76-3.45-7.11-.99-13.31-4.49-17.77-10.45-3.82-5.08-7.59-10.18-11.43-15.23-2.97-3.9-5.26-9.01-9.19-11.39-15.19-9.26-15.53-22.81-10.69-36.97 6.94-20.34 8.39-41.27 9.87-62.36 2.39-33.9 8.26-67.29 19.27-99.42 13.91-40.61 28.64-80.97 44.1-121.03 7.59-19.68 17.41-38.54 29.44-56.07 2.76-4 5.24-8.2 7.83-12.27-9.92-8.34-20.3-7.12-29.97-1.81-16.03 8.79-31.8 18.12-47.15 28.04-33.36 21.5-61.68 49-90.21 76.32-12.52 11.97-22.15 24.82-27.59 41.58-12.8 39.48-27.14 78.46-40.13 117.88-8.45 25.63-20.44 49.36-35 71.9-2.18 3.38-5.25 6.99-8.75 8.42-2.35.96-6.12-2.09-9.38-2.73-2.49-.5-5.2-.28-7.78 0-4.14.45-8.26 1.23-12.56 1.9-5.78 5.95-11.52 12.16-17.59 18-5.29 5.08-11.04 6.68-19.09 5.7-8-.97-15.2-3.76-21.91-6.79-9.09-4.14-15.53-11.29-14.5-23.34 1.61-18.98 3.12-37.6 10.24-55.79 9.99-25.53 17.56-51.99 27.03-77.73 8.27-22.45 17.53-44.54 26.73-66.65 12.45-29.9 25.67-59.48 37.72-89.54 4.95-12.38 7.86-25.6 11.34-38.54 1.63-6.06 1.77-12.31-1.28-19.8-8.36 4.88-16.65 8.49-23.48 13.95-17.49 13.99-35.97 26.75-48.39 46.53-14.22 22.65-31.76 43.23-45.48 66.15-13.7 22.89-24.66 47.46-36.41 71.48-11.78 24.04-22.48 48.57-30.95 74.02-1.08 3.24-2.37 7-4.78 9.11-13.11 11.37-20.66 26.81-28.71 41.32-9.57 17.22-21.82 30.87-37.95 41.52-7.04 4.64-14.06 9.27-21.44 14.15-8.26-2.08-16.36-4.12-25.44-6.4-2.04-5.6-4.11-11.34-6.12-16.86-6.93-.62-13.12-1.18-20.72-1.84.12-3.94.15-7.92.39-11.88.24-4.15.7-8.29 1.08-12.53-10.14 4.73-13.43 7.47-21.87 16.99-19.63 22.16-39.6 44-59.01 66.35-15.39 17.73-34.85 30.66-52.55 45.64-3.59 3.03-8.8 5.65-13.33 5.78-11.59.32-22.01 4.57-32.73 7.83-6.76 2.07-12.12.55-17.9-3-15.24-9.39-24.12-23.25-29.62-39.79-6.98-20.98-8.22-42.82-8.54-64.56-.28-18.02-1.44-36.29 3.69-54.1.52-1.83-2.19-4.59-3.81-7.68-4.67 3.83-8.69 6.68-12.2 10.06-14.81 14.21-31.55 25.85-48.41 37.39-17.41 11.93-34.68 23.9-53.16 34.34-22.37 12.62-45.67 21.69-70.6 27.04-20.64 4.43-40.71 11.65-62.09 12.15-6.65.18-12.31 2.4-17.4 6.64-3.75 3.12-7.85 5.83-11.43 8.48-11-1.83-21.28-3.82-31.64-5.15-8.16-1.04-14.16-5.11-19.94-10.69-20.9-20.11-25.34-40.3-29.45-74.39-3.18-26.3 3.69-51.78 8.52-77.34 3.9-20.75 8.5-41.37 11.96-62.18 4.96-29.9 11.79-59.25 22.5-87.65 6.7-17.72 13.6-35.39 19.49-53.37 6-18.25 14.31-35.12 25.06-50.99 6.7-9.9 12.45-20.45 18.82-30.6 12.83-20.48 30.7-36.42 48.12-52.72 4.94-4.62 29.62-13.47 38.54-14.09.62-.04 1.28.53 3.43 1.49.61 2.16 1.86 5.28 2.38 8.54.96 5.84 3.4 10.84 8 14.43 7.19 5.58 8.33 13.58 11.27 21.56 10.93 29.63 2.86 56.82-7.4 84.14-3.95 10.51-8.14 20.94-12.07 31.46-12.84 34.29-25.58 68.62-38.39 102.92-5.17 13.85-9.71 27.99-15.74 41.46-9.35 20.83-15.24 42.27-15.51 65.18-.02 1.39-.08 2.93-.65 4.15-10.2 21.9-1.83 41.08 8.69 59.95 2.4 4.3 4.83 8.58 7.06 12.57 9.17 2.52 17.98 4.53 26.5 7.41 5.93 2.01 11.02.25 16.4-1.46 21.65-6.86 41.44-17.79 60.47-29.69 40.75-25.48 77.8-55.82 111.76-89.81 7.56-7.58 11.39-17.32 13.27-28.14 4.67-26.76 10.53-53.21 18.62-79.28 8.85-28.57 22.1-54.67 37.45-80.03 3.25-5.38 6.62-11.08 8.11-17.08 5.55-22.37 18.3-41.03 30.24-60.04 5.55-8.85 12.89-16.59 19.73-24.57 1.7-2 4.4-3.56 6.95-4.34 10.05-3.12 20.15-6.14 30.35-8.64 8.74-2.16 16.98 1.38 17.88 9.71 1.17 11.05 10.01 13.87 16.19 19.72 1 .92 2.05 1.76 3.93 3.39-1.27 3.43-2.36 7.38-4.13 10.99-18.46 37.28-35.9 75.05-50.28 114.06-11.2 30.38-20.28 61.56-30.16 92.42-10.57 33.01-17.27 66.81-21.4 101.2-1.6 13.27-5.14 26.31-6.99 39.56-3.02 21.61-5.44 43.3-7.96 64.99-.24 1.99.59 4.1.91 6.11 13.1 1.89 22.98-3.28 32.06-12.1 20.2-19.58 41.93-37.68 61.06-58.22 15.7-16.88 33.73-32.12 44.68-53.12.66-1.24 1.26-2.7 2.32-3.51 15.06-11.74 17.95-28.39 21.3-46.07 8.26-43.59 16.91-87.28 28.76-129.98 8.98-32.41 21.05-64.21 36.36-94.47 6.31-12.48 12.56-25.02 19.08-37.41 6.82-13.05 13.46-26.26 21.17-38.78 3.17-5.16 8.36-9.67 13.63-12.82 8.98-5.37 18.76-9.42 29.3-14.58 5.07 1.98 10.92 4.27 15.71 6.14 15.8 18.5 19.78 40.84 26.31 62.06 1.01 3.27 1.37 7.11.77 10.45-2.7 14.5-2.99 29.22-7.33 43.64-8.94 29.64-16.14 59.8-24 89.77-.68 2.59-.89 5.31-2.04 12.57 4.88-7.05 7.55-10.15 9.41-13.67 19.48-36.99 44.82-70 70.93-102.35 17.46-21.63 40.27-37.12 64.91-49.76 7.53-3.88 15.59-6.17 24.31-6.38 6.98-.18 13.91-1.94 20.9-2.55 6.26-.56 12.71-1.42 18.87-.59 12.24 1.65 22.94 6.55 29.4 18.06 12.29 21.86 20.38 44.7 18.37 70.36-.53 6.65-2.54 13.67 1.27 22.18 7.54-5.73 15.35-9.58 20.13-15.75 9.77-12.59 22.9-20.93 35.11-30.23 22.41-17.04 45.58-33.73 71.76-44.04 24.7-9.72 49.62-20.48 76.54-22.94 14.78-1.35 29.83 1 42.79 8.33 9.85 5.58 15.85 15.71 20.04 26.39 7.27 18.6 4.86 37.29.22 55.92-1.87 7.47-4.09 14.87-6.52 22.18-12.18 36.69-21.97 74.22-37.73 109.68-9.42 21.2-19.56 42.09-29.24 63.19-6.73 14.7-13.01 29.58-19.89 44.19-5.39 11.45-10.56 23.16-17.31 33.81-11.41 17.99-13.79 38.28-16.94 58.45-.93 5.95 2.82 11.32 8.91 12.48 9.66 1.84 19.44 3.16 29.23 4.15 8.16.85 15.24-2.51 21.36-7.65 13.48-11.3 27.25-22.33 40.05-34.38 13.3-12.53 25.6-26.13 38.24-39.17 5.15-19.93 6.96-40.16 8.96-60.24 3.02-30.27 9.29-59.69 19.42-88.32 9.64-27.2 19.79-54.23 28.89-81.6 10.1-30.37 26.23-57.61 42.34-84.89 9.3-15.75 18.82-31.39 28.96-46.6 5.79-8.69 12.63-16.78 19.75-24.46 5.3-5.7 12.14-8.94 20.32-10.19 11.11-1.7 21.95-4.97 34.04-.45 7.12 20.18 14.34 40.64 21.93 62.2-13.24 12.89-18.26 30.58-23.83 47.97-11.4 35.57-24.02 70.7-38.03 105.34-1.74 4.31-2.33 9.1-.57 15.88 1.12-1.76 2.13-3.6 3.37-5.26 24.09-33.06 51.23-63.46 80.83-91.67 2.54-2.42 5.17-4.91 7.11-7.8 7.62-11.34 18.32-19.46 28.6-28.03 12.42-10.35 24.81-20.75 37.45-30.83 12.67-10.09 25.62-19.84 38.5-29.7 1.67-1.28 4.15-1.81 5.34-3.37 11.14-14.64 26.29-14.1 42.13-11.68 12.4 1.89 24.62 2.13 36.72 8.12 12.05 5.99 21.24 13.27 27.75 24.59 1.05 1.81 2.33 3.46 3.86 5.73 3.24-.52 6.51-1.06 10.87-1.77 4.96 15.24 9.34 30.58 6.47 47.09-1.73 9.91-1.64 9.91 2.09 20.21 12.03-8.56 24.16-16.89 35.99-25.65 25.61-19 53.71-33.55 82.66-46.64 6.41-2.9 12.48-6.63 19.05-9.08 7.19-2.67 14.68-4.66 22.18-6.32 8.23-1.81 14.24.85 20.11 7.82 8.07 9.59 19.06 16.69 27.29 26.17 12.04 13.88 27.34 24.23 39.52 37.72 15.27 16.95 17.44 38.21 14.84 59.63-1.43 11.73-5.55 23.29-9.6 34.53-11.21 31.12-22.46 62.26-34.76 92.97-11.19 27.96-25.05 54.76-40.92 80.41-12.53 20.27-25.24 40.44-38.4 60.3-5.32 8.03-12.28 14.97-17.98 22.76-1.84 2.5-2.04 6.19-3.21 10.05 9.48 3.68 17.78 9.14 26.39 9.64 9.39.54 19.59-2.21 28.49-5.84 14.23-5.83 27.27-14.52 40.88-21.48 27.18-13.85 49.7-34.86 77.32-46.34 5.73-24.33 11.15-47.53 16.73-70.7 1.14-4.78 2.64-9.5 4.39-14.11 8.2-21.71 17.36-42.85 30.6-62.28 13.45-19.74 24.76-40.92 37.74-61 22.56-34.87 46.2-68.99 75.78-98.48 1.99-2 4.48-3.63 6-5.92 14.31-21.8 35.27-36.15 56.33-50.33 7.59-5.09 15.35-9.8 24.81-11.23 14.58-2.21 26.98 2.4 33.85 15.53 5.84 11.15 10.88 22.99 14.28 35.1 7.21 25.69 15.61 51.08 19.89 77.63 4.31 26.69 4.27 53.32 2.28 80.08-1.15 15.36-7.71 28.97-17.53 40.05-12.52 14.16-26.67 26.99-40.74 39.69-18.53 16.7-41.54 26.2-63.46 37.3-10.63 5.39-21.94 9.59-33.19 13.65-11.78 4.25-18.24 11.28-19.51 24.52-1.74 18.11-8.45 35.44-9.64 53.78-1.04 16.15-2.81 32.24-4.24 48.36-.5 5.56 2.27 9.25 6.61 12.3 5.14 3.62 10.31 7.26 15.04 11.36 14.8 12.81 30.05 14.1 46.15 3.03 9.87-6.79 19.28-14.24 28.94-21.33 21.64-15.85 42.54-32.6 61.7-51.38 5.47-5.38 9.98-11.87 14.23-18.31 10.56-16.04 23.25-29.94 38.34-41.91 6.51-5.17 11.64-12.13 17.22-18.44 14.89-16.89 30.18-33.51 41.09-53.46 1.67-3.06 3.09-6.27 4.83-9.81-4.03-8.2-7.64-16.5-12.05-24.34-15.12-26.86-16.72-54.49-5.86-83.15 2.25-5.92 4-12.04 5.58-18.18 4.39-17.01 14.99-28.23 31.49-33.84 3.19-1.08 6.91-1.81 10.17-1.29 8.27 1.32 16.42 3.45 23.56 5.01 12.16 19.23 10.46 38.34 6.43 57.88-1.98 9.58-2.53 19.46-3.93 29.17-1.75 12.35-.52 25.34-9.25 36.15-2.4 2.95-1.78 8.17-3.3 12.05-4.07 10.17-.39 17.01 7.41 23.95 20.57 18.31 41.65 35.56 68.42 44.14 1.32.43 2.8.84 3.83 1.7 12.27 10.51 25.63 20.06 36.37 31.95 11.82 13.09 20.29 28.72 21.52 47.25 1.2 18.28 3.03 36.5 4.24 54.78.55 8.65-2.04 16.71-6.46 24.19-12.94 21.87-24.85 44.25-34.08 67.96-1.03 2.63-1.82 5.86-3.79 7.44-9.65 7.71-14.23 18.89-20.87 28.69-6.64 9.8-14.77 18.61-21.24 28.51-8.86 13.55-13.45 29.1-18.28 44.39-2.5 7.93-3.5 16.33-5.42 25.7 4.93 5.22 9.57 11.24 9.27 20.7-.29 9.29 6.2 15.17 15.84 16.94 15.55 2.85 30.25 2.58 45.47-3.85 33.86-14.29 66.92-29.85 98.38-48.97 14.41-8.77 30.24-15.18 45.12-23.22 9.88-5.33 19.38-11.38 28.73-17.58 16.38-10.87 32.51-22.11 48.77-33.17 2.89-1.98 6.21-3.46 8.77-5.79 12.46-11.37 25.15-22.54 36.94-34.6 9.57-9.79 20.85-16.62 32.62-23.03 4.92-2.68 10.06-5.23 14.28-8.79 16.76-14.12 36.69-20.5 57.68-24.17 8.34-1.46 16.81-1.47 24.85 2.47 8.43 4.15 10.87 10.56 7.03 18.88-3.85 8.32-9.97 12.74-19.13 14.72-18.73 4.04-36.13 11.38-50.59 24.53-2.61 2.36-5.13 5.05-8.17 6.69-20.86 11.19-36.5 28.52-52.94 44.88-10.01 9.96-20.08 19.72-32.58 26.72-4.87 2.73-9.46 6.29-13.45 10.22-25.4 25.11-56.09 42.38-87.53 58.23-11.11 5.61-23.89 8.62-36.26 10.79-9.37 1.66-17.35 5.13-25.29 9.83-34.58 20.51-71.88 32.7-112.21 31.82-18.8-.42-37.35-5.88-54.93-13.41-2.57-1.1-4.89-3.17-7.56-3.73-25.54-5.42-39.85-24.8-54.21-43.83-9.06-12-14.38-25.95-15.85-40.92-.6-6.07 1.49-12.34 1.63-18.54.43-20.5 3.69-40.53 8.93-60.3 6.48-24.49 11.88-49.3 22.67-72.45 3.27-6.99 5.41-14.76 9.8-20.94 12.63-17.76 21.23-38.02 35.92-54.62 8.21-9.25 12.96-21.54 19.36-32.6zm-316.25-101.08c13.12-6.48 24.74-12.85 36.84-18.09 26.15-11.33 48.67-27.82 69.29-47.13 9.35-8.78 17.33-18.6 19.02-31.93 3.74-29.34 6.34-58.73-1.23-87.89-3.53-13.59-7.7-27.02-11.72-40.49-.69-2.37-.55-5.91-5.95-5.2-1.13 1.5-3.04 3.47-4.29 5.79-6.67 12.32-12.96 24.87-19.79 37.13-15.67 28.13-33.44 55.1-46.22 84.87-11.32 26.44-25.37 51.74-33.29 79.59-1.88 6.66-5.42 13.1-2.66 23.35zm262.1-64.31c3.13-7.02 5.38-10.55 6.31-14.39 3.49-14.24 6.48-28.37 13.94-41.53 3.88-6.84 3.75-16.18 4.5-24.47.48-5.5-5-10.29-10.73-10.83-9.69-.9-15.33 2.2-17.86 10.87-2.93 10.07-5.65 20.27-7.67 30.56-3.25 16.55.83 31.73 11.51 49.79zm-2819.83-71.27c-3.14 1.05-5.48 1.18-6.85 2.4-11.61 10.24-22.7 21.09-34.59 30.99-14.04 11.7-28.77 22.57-43.11 33.94-29.86 23.68-62.19 43.73-94.84 63.15-25.97 15.45-53 29.15-79.71 43.31-6.18 3.28-13.01 5.31-19.55 7.87-3.28 1.29-6.85 2.03-9.87 3.75-31.33 17.93-65.5 29.2-98.89 42.26-9.8 3.83-18.85 8.74-27.17 15.71-23.22 19.43-47.43 37.62-74.32 51.98-15 7.99-30.37 14.82-47 18.56-2.75.63-5.63.88-8.26 1.78-26.33 9.13-52.73 5.5-79.26 1.08-7.84-1.29-12.47-5.56-16.79-12.42 5.62-5.69 8.18-12.23 7.61-20.68-.38-5.99 1.92-12.49 4.25-18.28 3.68-9.12 10.49-14.84 21.01-14.29 11.5.6 22.24-2.63 33.17-5.57 13.58-3.65 27.33-6.8 41.09-9.76 20.04-4.32 39.16-11.02 58.13-18.89 42.24-17.51 85.08-33.54 127.52-50.56 37.95-15.22 74.76-32.99 110.51-52.72 29.58-16.33 58.88-33.35 87.1-51.88 24.65-16.17 47.92-34.51 71.24-52.61 20.53-15.92 40.3-32.82 61.14-49.9-.62-3.88-.58-8.21-2.03-11.97-12.12-31.5-23.04-63.18-28.21-96.88-1.7-11.02-4.95-22.69-13.42-32.52-8.73-10.15-10.75-24.33-12.5-37.66-1.36-10.36-1.21-20.95-2.94-31.23-3.03-17.94-6.86-35.71-8.95-53.83-.91-7.9-1.33-15.07.9-22.77 2.33-8.06 2.99-16.6 4.9-24.81 2.22-9.55 4.59-18.98 10.03-27.56 4.11-6.45 6.18-14.17 9.91-20.93 9.81-17.82 19.83-35.54 30.25-53.01 2.45-4.09 6.47-7.53 10.4-10.39 23.87-17.34 44.42-39.31 71.87-51.69 35.68-27.44 77.87-41.97 118.36-59.94 18.16-8.05 36.75-14.26 56.08-18.39 6.14-1.32 12.49-1.69 18.75-2.38 8.39-.89 15.55 2.15 20.65 8.51 6.33 7.89 14.24 13.25 22.7 15.97 1.27 2.45 2.36 3.63 2.5 4.92 4.06 38.5 10.42 76.82 8.24 115.77-.75 13.42-1.53 26.72-6.14 39.54-15.94 44.41-31.09 89.14-56.35 129.5-21.74 34.73-47.99 66.05-73.76 97.74-7.06 8.67-14.19 17.26-21.19 25.75 7.94 21.87 15.92 42.83 23.13 64.05 4.96 14.6 9.07 29.51 13.11 44.41 4.06 14.93 7.77 29.94 11.28 44.99 3.21 13.71 6.01 27.5 8.84 41.28 6.76 33.09 14.21 66.08 19.94 99.37 6.57 38.17 13.16 76.47 16.72 114.98 2.45 26.51-.21 53.48-.67 80.25-.34 19.69-1.02 39.38-1.15 59.07-.11 16.41-3.39 32.27-8.39 47.66-5.64 17.39-12.54 34.35-18.91 51.5-3.91 10.49-7.42 21.17-11.9 31.43-4.51 10.28-8.82 20.97-15.29 29.99-18.02 25.17-36.83 49.82-56.02 74.12-5.11 6.47-12.69 11.02-19.25 16.29-3.84 3.08-8.15 5.58-11.9 8.79-34.09 29.08-74.5 44.42-117.25 55.4-19.18 4.92-38.71 5.68-58.07 8.39-2.72.39-5.79.44-8.34-.41-11.1-3.69-22.18-.77-33.28-.9-16.46-.19-33.46 4.41-49.45-3.61-2.42-1.22-5.72-2.09-8.22-1.5-13.63 3.19-24.91-4.08-35.99-9.1-25.05-11.33-48.55-25.89-69.19-44.04-32.38-28.48-55.97-62.76-64.66-105.97-2.07-10.28-5.2-20.33-7.43-30.59-3.77-17.37-2.11-35.09-2.88-52.67-.25-5.59.23-11.25.74-16.84.79-8.42 1.82-16.88 7.1-23.94 21.54-28.77 42.64-57.88 64.87-86.12 25.03-31.78 56.52-56.95 88-81.95 3.77-2.97 8.4-5.83 13-6.62 20.81-3.63 41.72-6.63 62.65-9.49 3.8-.51 7.85.71 14.33 1.41-8.48 10.39-17.68 14.7-27.78 17.59-26.91 7.68-49.17 22.86-70.65 40.52-20.2 16.64-32.56 37.72-45.27 59.88-15.82 27.6-22.61 57.72-29.45 87.63-5.79 25.3-3.64 51.56 3.26 77.27 4.58 17.02 10.58 33.54 17.68 49.42 9.3 20.73 23.93 38.68 43.73 49.9 11.14 6.33 25.41 7.44 38.46 9.98 6.82 1.32 14.05.67 21.09.97 12.84.56 25.31-.8 37.01-6.64 2.51-1.26 5.1-2.45 7.78-3.22 28.97-8.37 54.12-23.12 75.31-44.61 1.46-1.5 3.12-2.97 4.97-3.91 15.17-7.58 24.18-21.26 33.61-34.35 9.44-13.1 18.42-26.54 27.14-40.13 10.05-15.66 15.56-33.39 18.7-51.35 9.03-52.02 14.73-104.49 16.11-157.31 1.62-62.85.39-88.61-5.87-130.37-.91-6.18-2.76-12.27-4.72-18.25-10.44-32.14-20.86-64.3-31.7-96.31-5.34-15.8-11.54-31.32-17.49-47.3zm127.48-198.55c5.46-5.66 9.58-9.45 13.15-13.7 10.87-12.91 21.26-26.23 32.3-38.97 18.46-21.3 35.11-43.84 49.11-68.33 16.08-28.1 28.45-57.88 41.23-87.55 17.81-41.38 21.43-83.78 12.97-127.59-.64-3.31-1.58-7.08-3.67-9.52-7.48-8.69-16.43-15.84-28.1-17.62-16.88-2.58-33.39-1.89-49.55 5.42-28.44 12.85-52.54 32.5-78.63 49.03-10.03 6.34-18.84 14.73-27.7 22.76-4.07 3.68-8.1 8.25-10.09 13.23-4.91 12.33-9.55 24.92-12.56 37.81-2.39 10.14-4.06 21.14-2.6 31.28 1.65 11.57-4.48 22.08-1.99 33.34 1.21 5.45 1.04 11.32 2.92 16.47 8.93 24.32 18.23 48.5 27.63 72.65 6.13 15.71 13.62 30.97 18.7 47 3.69 11.62 9.25 21.78 16.88 34.29zm2823.82 1647.06c-3.04-4.3-6.67-7.8-11.65-10.45-8.68-4.61-18.61-.74-27.36-5.39-2.7-1.44-7.85 1.5-11.81 2.64-11.29 3.25-22.48 6.77-33.8 9.91-7.92 2.2-16.82 2.4-23.79 6.22-16.44 9.04-35.72 7.36-52.24 15.48-1.49.73-3.54.24-5.27.59-4.59.91-9.18 1.84-13.72 3.03-10.8 2.79-21.78 5.16-30.92 12.32-1.69 1.32-4.4 1.55-6.69 1.91-12.38 1.96-24.04 5.95-35.22 11.55-7.95 3.98-15.97 7.62-25.37 6.85-3.34-.26-6.94 1.14-10.23 2.31-15 5.39-30.99 6.55-46.19 11.1-.38.12-.94-.36-2.34-.93-.56-6.05.28-12.35 1.56-18.73 5.57-27.86 9.82-55.96 16.98-83.5 4.94-18.99 4.74-38.67 6.45-58.06 1.73-19.44 3.17-38.85.61-58.46-2.07-15.8-2.38-31.85-3.22-47.8-.61-11.79.01-23.69-1.44-35.35-1-8.03-4.32-15.82-7.2-23.49-1.08-2.9-4.36-3.95-7.55-2.72-2.58.99-5.04 2.35-7.43 3.48-5.5-3.33-9.34-8.24-15.76-8.6-4.42-.25-7.38-3.2-10.06-6.57-4.85-6.12-11.4-4.71-16.53.97-9.83 10.94-19.96 21.6-30.2 32.15-28.04 28.93-55.34 58.6-87.43 83.33-13.29 10.25-27.92 17.82-42.8 25.14-3.13 1.54-6.68 2.45-10.15 3.13-6.2 1.23-11.74.11-15.82-5.37-2.44-3.25-5.07-6.35-7.58-9.45-.14-1.91-.45-3.7-.38-5.46 1.01-27.53 8.29-53.6 18.7-78.89 3.6-8.74 8.51-17.14 10.83-26.2 4.04-15.85 12.58-29.23 20.59-43.02 1.17-2.01 2.2-4.13 3.84-7.17-5.67-3.62-2.73-13.65-12.32-14.74-1.11-.14-2.33-2.56-2.82-4.14-1.37-4.48-2.39-9.07-3.47-13.33-6.66-4.36-12.97-8.52-19.34-12.71-4.84 2.72-8.67 6-13.05 7.15-13.92 3.66-23.74 12.39-32.12 23.43-9.63 12.72-20.09 24.85-29.02 38.02-9.6 14.17-18.65 29.01-22.6 45.94-4.07 17.36-12.53 31.31-26 43.11-13.3 11.68-25.23 24.88-37.87 37.31-16.44 16.16-32.86 32.39-49.61 48.24-8.15 7.74-14.31 10.19-25.36 11.95-.27-5.3-.77-10.49-.76-15.71.02-5.88.39-11.79.82-17.68 1.45-19.09 11.55-35.67 15.76-53.98 1.3-5.69 3.05-11.28 4.53-16.93 4.18-15.91 7.14-32.25 12.9-47.57 3.93-10.46 7.91-20.86 11-31.6 4.22-14.67 9.23-29.17 12.35-44.07 4.17-19.96 1.85-38.72-13.52-54.44-6.57-6.72-13.08-9.4-22.23-6.56-3.98 6.63-7.99 13.18-11.87 19.8-15.27 25.99-30.48 51.98-41.53 80.19-2.78 7.06-7.2 13.47-10.9 20.18-1.14 2.06-3.56 4.29-3.29 6.11 1.43 9.25-6.19 11.96-11.22 16.39-8.42 7.41-17.18 14.41-25.67 21.7-15.71 13.48-31.26 27.14-47.09 40.46-2.37 2-5.89 2.65-8.88 3.92-4.07-8.77-5.44-16.63-4.41-25.14 1.67-14.06 2.88-28.19 4-42.31 2.08-26.05 5.9-51.73 17.11-75.65 5.76-12.29 11.73-24.57 18.86-36.1 3.93-6.34 9.73-12.15 15.95-16.3 8.68-5.78 18.56-9.78 27.54-14.35 10.48 9.58 12.73 13.07 13.36 23 .52 8.27.82 16.6.36 24.86-.67 12.12 2.41 23.1 7.97 33.84 9.52-4.45 13.15-12.15 13.11-21.72-.02-11.83-.46-23.67-.82-35.51-.06-2.35-.19-4.83-.97-7-5.36-15.13-12.4-29.46-21.84-42.44-3.47-4.76-7.6-9.43-13.91-10.41-9.83-1.54-19.41-3.45-29.79-1.67-25.77 4.39-45.98 18.11-63.74 35.95-8.71 8.76-16.83 18.04-26.34 26.06-6.27 5.27-12.33 11.18-17.04 17.84-12.26 17.35-23.99 35.09-32.88 54.5-8.68 18.94-15.14 38.89-16.2 59.53-1.33 25.87-3.41 52.03 2.82 77.75.24.97-.58 2.2-.92 3.31-12.26 6.58-16.32 9.81-22.1 21.72-9.96 20.5-24.33 37.68-39.46 54.29-6.68 7.32-14.34 13.72-24.86 17.9-4.05-4.69-9.99-8.56-11.2-13.56-3.42-14.19-7.7-28.5-3.95-43.63 2.98-12.04 4.78-24.39 7.15-36.58 1.68-8.73 2.87-17.59 5.26-26.12 9.01-32.04 13.42-64.95 17.96-97.73 3.9-28.12 8.68-56 13.65-83.92 3.29-18.51 11.53-33.2 22.57-47.26.73-.93 1.67-1.7 2.4-2.64 18.19-23.35 36.11-46.91 49.87-73.24 11.2-21.49 22.13-43.16 32.63-65 5.38-11.17 10.39-22.66 14.14-34.46 8.22-25.91 15.79-52.06 23.1-78.25 5.6-19.99 9.65-40.3 8.93-61.29-.12-2.94-.21-6.05.59-8.81 5.89-20.44.21-41.35 2.68-61.92.46-3.84-.71-8.57-2.75-11.9-8.55-13.95-24.61-18.99-35.9-8.12-13.12 12.65-24.91 27.01-35.4 41.96-10.1 14.41-17.71 30.58-26.63 45.85-23.87 40.9-43.14 84.06-62.79 127.05-5.39 11.8-9.17 24.33-14.26 36.26-6.97 16.29-12.5 33.06-17.75 49.96-5.24 16.86-10.62 33.7-16.29 50.43-9.67 28.57-18.28 57.47-24.5 87.01-7.01 33.24-10.36 41.27-32.1 65.58-27.21 30.44-54.87 60.48-82.16 90.86-4.19 4.67-8.66 5.6-14.27 3.83-5.35-1.67-9.32-4.79-12.16-9.7-4.6-7.91-6.32-16.39-6.83-25.44-2.3-41.48 4.26-81.45 19.35-120.1 6.9-17.66 13.74-35.34 20.5-53.04 3.87-10.15 9.86-18.75 17.47-26.47 10.96-11.06 24.09-13.03 37.62-7.55 20.32 8.23 35.75 21.24 35.89 45.76.01 3.67.79 7.07 4.46 8.91 3 1.5 7.61-.64 10.26-5.03 3.12-5.15 4.98-10.57 4.08-16.86-1.31-9.08-4.14-17.23-11.4-23.33-4.52-3.81-9.52-7.23-13.32-11.67-5.71-6.67-13.05-10.06-21.03-12.44-7.8-2.34-13.99-9.51-23.13-7.72-18.05-5.29-36.47-1.9-54.71-2.3-5.37-.1-10.29 1.35-14.76 5.04-5.01 4.11-10.73 7.35-16.25 10.75-10.77 6.63-19.98 14.86-26.06 26.03-9.03 16.6-18.05 33.23-26.45 50.17-5.23 10.58-9.04 21.87-14.01 32.6-15.83 34.08-20.28 70.19-19.1 107.24.1 3.04 1.84 6.03 3.24 9.01-.74.54-1.48 1.09-2.22 1.63-5.23.54-9.19 4-13.09 7.19-9.59 7.85-18.76 16.23-28.36 24.09-8.67 7.14-17.69 13.82-26.49 20.81-9.27 7.34-18.25 15.05-27.76 22.04-2.97 2.17-6.65 5.32-11.47 2.73-.42-1.56-1.28-3.22-1.26-4.86.52-28.99.91-57.99 1.84-86.98.48-14.77 2.75-29.52 2.78-44.27.08-43.54 6.49-86.01 19.47-127.53 4.21-13.53 8.81-26.95 12.83-40.54 3.85-13.04 7.22-26.23 10.67-39.39.87-3.38 1.54-6.9 1.69-10.38.05-1.47-1.15-3.51-2.41-4.41-6.69-4.81-20.62-4.06-26.18 1.76-13.06 13.68-26.54 27.04-38.45 41.7-11.92 14.66-21.74 30.77-29.19 48.49-13.32 31.66-23.79 64.11-31.13 97.62-2.36 10.85-4.83 21.78-6.14 32.78-.96 8.06-1.55 16.2-2.34 24.22-.91 9.1-3.45 18.88-.9 27.81 3.08 10.9.12 19.82-5.09 28.72-13.71 23.49-26.85 47.36-41.46 70.29-15.55 24.44-32.53 47.97-48.87 71.87-.34.5-.75.93-1.09 1.42-5.62 8.82-15.06 11.01-24.17 13.39-2.53.66-6.12-.21-8.4-1.67-5.55-3.55-9.21-8.05-10.02-15.59-2.37-21.76-6.05-43.33-13.24-64.18-2.09-6.07-2.57-12.72-3.55-19.12-2.79-18.04-4.75-36.18-6.97-54.28-1.94-15.89-1.98-31.67-1.97-47.56.01-11.77-1.3-23.58-.67-35.3 1.12-20.57-.15-41.12 2.48-61.76 2.45-19.15 1.29-38.72 4.93-57.95 1.5-7.95 4.67-13.72 10.32-19.67 25.91-27.37 56.78-50.52 74.14-85.34.77-1.55 2.25-2.73 3.37-4.11 14.34-17.43 23.75-37.8 33.68-57.75 6.31-12.61 10.03-26.55 16.7-38.92 14.39-26.6 22.78-55.59 34.62-83.2 6.02-14.01 9.5-29.07 11.58-44.39 1.82-13.46 3.94-27.02 7.59-40.07 8-28.62 5.7-57.48 3.64-86.38-.28-4.03-2.31-7.89-3.2-11.91-.62-2.8-1.63-6.04-.81-8.52 4.18-12.51-2.59-20-12.08-28.06-9.82 4.6-20.56 6.71-31.33 8.87-4.37.86-8.46 3.9-12.31 6.51-3.41 2.3-6.08 5.68-9.46 8.04-11.26 7.86-20.84 17.23-29.09 28.31-7.75 10.42-16.36 20.24-25.09 29.87-14.72 16.23-28.06 33.54-37.98 53.01-13.37 26.31-26.16 52.97-38.05 79.99-10.93 24.9-21.08 50.21-30.13 75.84-7.07 20.07-11.79 40.95-17.81 61.39-5.87 19.98-8.2 40.58-11.45 61.06-3.61 22.76-8.91 45.29-9.48 68.49-.05 2.36-.31 4.75-.86 7.04-.91 3.73-3.42 6.74-7.14 6.99-9.28.63-18.68 1.7-28.36-1-2.55-8.61-.63-16.96-1.53-25.07-.65-5.84-.58-11.92-2.3-17.43-4.07-12.98-8.97-25.69-13.63-38.48-.59-1.63-1.46-3.26-2.56-4.6-7.85-9.63-16.11-18.76-26.98-25.29-13.13-7.91-26.88-6.78-39.22 2.01-11.23 8-16.09 20.18-23.13 30.98-1.22 1.86-1.8 4.47-1.84 6.76-.44 16.58-.69 33.15-.94 49.73-.02 1.17-.11 2.61.48 3.5 5.2 7.79 9.85 16.13 16.07 23.05 5.04 5.62 12.26 9.22 18.04 14.29 4.31 3.77 9.37 4.82 14.56 5.72 12.73 2.19 25.51 4.13 38.24 6.32.93.17 1.63 1.59 2.92 2.93-.44 14.62-6.24 28.11-12.63 41.47-2.79 5.85-5.9 11.67-7.67 17.85-6.95 24.32-19.45 45.63-34.47 65.65a54.173 54.173 0 01-5.87 6.59c-8.21 7.7-16.81 15.01-24.72 22.97-20.01 20.04-43.94 21.2-69.37 14.72-10.41-2.67-15.38-10.88-16.01-21.01-.89-14.58-.65-29.24-1.1-43.85-.69-21.95 1.17-43.72 3.51-65.53 2.03-18.91 3.61-37.64 14.15-54.3 3.14-4.96 5.28-10.59 7.64-16.01 14.89-34.11 29.7-68.25 44.57-102.48-2.96-10.39-12.11-15.59-19.37-22.36-4.74-4.42-10.08-4.88-16.47-3.08-16.57 4.66-29.34 15.82-41.4 26.59-14.44 12.89-26.96 28.27-35.94 45.95-4.82 9.5-10.2 18.71-15.14 28.16-8.25 15.78-12.91 32.85-17.93 49.84-6.44 21.81-7.2 44.37-9.98 66.64-3.16 25.22-6.27 50.65.64 75.91 1.31 4.74.48 9.26-2.07 13.64-6.51 11.18-12.47 22.68-19.22 33.72-9.53 15.58-21.8 29.25-31.87 44.55-11 16.71-25.45 31.11-34.19 49.48-1.49 3.14-3.94 5.89-6.25 8.56-6.55 7.57-14.06 14.45-19.66 22.63-6.55 9.54-14.69 16.62-23.74 22.32-3.16-.72-5.44-1.48-7.77-1.72-12.53-1.36-20.71-8-24.35-20.03-3.41-11.3-7.24-22.54-9.75-34.07-3.68-16.77-5.92-33.86-9.53-50.64-8.09-37.29-10.65-75.06-9.91-113.06.45-21.8-3.1-43.33-2.53-65.14.36-14.03-2.88-28.08.53-42.16.69-2.8.23-5.9.11-8.86-.68-15.84-1.44-31.66-2.12-47.5-.1-2.36-.32-4.8.13-7.08 2.65-13.94 2.77-28.03 3.43-42.14.48-10.2 1.67-20.99 11.48-28.26 21.75-16.07 37.28-37.81 52.88-59.45 10.01-13.89 20.28-27.62 29.68-41.94 5.13-7.85 8.7-16.7 12.85-25.18 1.28-2.64 1.67-5.84 3.35-8.14 11-15.08 14.19-33.51 21.75-50.06 4.41-9.63 7.77-19.79 10.77-29.98 2.96-10.1 6.63-20.46 6.96-30.8.99-29.49 1.8-59.18-5.79-88.14-1.45-5.58-3.48-11.65-7.14-15.87-5.67-6.57-12.97-11.73-19.38-17.33-11.97 1.72-23.8 2.85-34.22 8.68-5.04 2.81-9.44 3.49-15 1.78-4.6-1.43-9.31-.06-13.28 3.22-6.81 5.64-14.36 10.53-20.49 16.82-19.04 19.52-34.94 41.6-47.75 65.58-25.25 47.27-41.88 97.81-53.78 149.87-5 21.87-7.81 44.22-11.49 66.37-3.39 20.43-7.99 40.79-9.58 61.35-2.09 27.42-5.18 23.36-24.84 33.19-1.58.81-3.31 1.31-4.99 1.91-26.14 9.48-52.35 18.75-78.38 28.54-11.04 4.16-21.57 9.71-32.54 14.08-22.51 8.97-45.14 17.63-67.79 26.28-3.64 1.41-7.62 3.59-11.9-.66.81-6.07 1.42-12.51 2.6-18.83 3.35-18.01 7.41-35.89 10.37-53.97 5.07-30.93 9.55-61.97 14.22-92.99 5.89-39.19 11.75-78.39 17.57-117.59 1.4-9.39 3.32-18.75 3.78-28.17 1.75-35.18 9.42-69.16 20.07-102.53 4.67-14.62 10.28-28.91 15.31-43.41 2.86-8.25 3.33-16.18-3.7-23.03-1.52-1.47-3.08-4.19-2.79-6.05.72-4.58-1.24-7.82-3.31-11.49-1.88-3.36-2.72-7.33-3.75-10.3-6.52-1.95-10.45.39-14.26 3.52-8.38 6.87-14.42 15.63-20.21 24.62-5.77 8.97-11.13 18.19-17.22 26.94-17.64 25.3-33 51.86-44.59 80.5-4.42 10.92-8.56 21.96-12.35 33.13a8551.848 8551.848 0 00-30.32 90.82c-6.24 19.07-12.08 38.26-18.01 57.43-3.65 11.83-8.29 23.5-10.45 35.62-6.69 37.84-16.31 75.06-22.89 112.97-5.65 32.6-10.36 65.31-15.27 98-6.51 43.26-10.94 86.81-14.65 130.4-2.5 29.47-4.54 59.01-5.89 88.57-1.07 23.56-.89 47.18-1.05 70.79-.11 13.6-.78 27.3.58 40.76 1.95 19.32 3.9 38.72 9.16 57.62 4.08 14.68 10.28 27.49 23.45 35.69 4.54-.73 9.33-3.09 12.45-1.67 6.69 2.99 12.39.27 18.62-.28 16.09-1.38 23.39-11.7 27.99-25.32 1.86-5.5 2.06-11.62 7.33-15.71 1.56-1.2 2.31-4.1 2.54-6.31 1.61-15.87 5.12-31.49 4.56-47.64-.67-18.94.38-37.94-.25-56.87-.84-25.65 3.41-50.73 7.8-75.72 6.53-37.24 15.94-73.95 21.71-111.37 4.5-29.22 9.09-58.42 14.04-87.57 1.24-7.37.33-15.39 4.23-21.19 10.79-2.95 20.56-5.19 30.06-8.31 11.79-3.87 23.37-8.36 34.95-12.79 15.45-5.93 30.8-12.09 46.2-18.13 11.57-4.53 23.01-9.45 34.78-13.4 14.55-4.88 29.63-8.06 43.13-15.91 3.99-2.33 8.92-3 13.87-4.57 3.32 2.07 6.71 4.19 9.88 6.18.17 3.31.41 5.64.4 7.99-.23 42.02-.5 84.06-.71 126.08-.04 10.02-.29 20.08.34 30.07 1.14 18.29 2.18 36.63 4.59 54.78 2.01 15.17 6.42 30.03 8.83 45.17 3.96 24.82 12.44 48.01 23.16 70.56 2.51 5.31 5.51 10.62 6.79 16.28 2.27 10.12 7.58 18.51 13.37 26.62 12.11 16.94 27.94 30.15 44.25 43.7 14.11-5.05 28.48-5.94 43.17-3.57 5.8.94 11.82.77 17.72.77 2.93-.01 6.63.17 8.64-1.44 9.99-7.97 21.72-13.61 28.73-25.52a363.68 363.68 0 0128.95-42.11c21.73-27.26 42.05-55.53 62.3-83.87 1.36-1.92 2.42-4.07 3.67-6.07 6.46-10.33 12.93-20.66 19.67-31.43 9.07 8.2 17.04 17.11 26.65 23.64 9.58 6.51 20.75 10.63 29.56 14.99 9.48-1.84 16.95-4.1 24.56-4.6 23.31-1.55 45.61-5.68 64.6-20.58 1.39-1.09 3.01-1.87 4.57-2.71 9.01-4.77 16.6-11.4 21.99-19.87 4.25-6.7 9.73-11.72 15.71-16.66 22.94-19.01 38.75-42.62 45.25-72.06.88-3.96 2.7-7.76 4.34-11.53 6.11-14.04 14.72-27.54 17.85-42.21 3.05-14.37 11.19-16.31 22.44-16.87 5.8-.3 11.66-1.41 18.42 1.48 0 4.1.43 8.15-.05 12.08-3.36 27.12-2.54 54.35-2.45 81.55.05 17.11 1.89 34.23 1.99 51.34.2 31.56 4.79 62.43 12.84 92.84 2.55 9.69 6.97 19.02 8.55 28.83 4.06 25.21 15.47 46.85 29.69 67.46 4.8 6.97 9.68 14.3 17.72 16.76 11.29 3.47 20.13 15.92 34.29 9.76 1.54-.66 4.36 1.06 6.36 2.1 7.82 3.93 14.64 2.1 21.61-2.56 9.01-6.04 16.26-13.74 22.7-22.25 13.17-17.45 26.25-34.96 39.06-52.67 5.19-7.15 9.63-14.87 14.35-22.36 6.95-11 13.81-22.06 20.77-33.04 1.68-2.66 2.29-6.48 6.67-6.78-.5 8.04.16 14.96 6.42 21.23 3.24 3.27 3.06 9.83 4.79 14.76 1.54 4.34 2.86 9.07 5.58 12.65 7.73 10.19 18.04 16.55 30.82 19.13 6.72 1.36 12.52 1.51 18.55-2.62 4.3-2.95 9.5-5.09 14.6-6.21 7.54-1.68 12.34-6.36 17.14-11.8 5.86-6.66 12.33-12.73 18.47-19.14 8.58-8.98 17.08-18.07 25.62-27.09 13.44-14.18 26.64-28.63 40.46-42.44 5.59-5.58 11.77-11.19 20.65-13.11 2.45 6.26 4.59 11.72 6.73 17.21 11.7 30 44.92 45.68 75.62 36.01 10.95-3.44 20.6-9.06 29.27-16.29 6.88-5.72 13.65-11.29 22.5-13.77 2.22-.61 4.39-1.86 6.24-3.27 18.03-13.59 34.89-28.36 47.11-47.7 3.09-4.88 6.38-9.64 9.26-13.98 5 .61 6.2 3.02 5.42 6.34-2.97 12.66-6.76 25.16-8.98 37.94-3.05 17.43-6.22 34.98-7.01 52.59-.94 20.63.43 41.36 1.17 62.04.39 10.65 1.09 21.31 2.53 31.85 1.44 10.58 4.22 20.85 11.24 29.5 5.15 6.35 9.94 13.03 15.27 20.07 9.99-.36 18.01 4 26.51 10.32 8.88 6.63 19.54 11.47 32.66 9.1 8.33-1.5 14.51-3.95 19.33-10.36 8.88-11.8 18.1-23.39 26.27-35.68 7.84-11.82 14.44-24.47 21.85-36.58 3.99-6.56 7.42-14.12 13.08-18.81 6.25-5.17 9.95-11.45 13.85-18 2.99-5.03 6.02-10.04 9.5-15.81 3.55 1.81 6.58 3.34 9.59 4.89 8.27 4.3 16.09 10.26 24.88 12.56 15.96 4.16 32.29 2.42 45.76-7.76 14.13-10.65 28.78-21.5 40.02-34.93 14.74-17.62 32.57-30.86 50.63-44.23 2.06-1.53 4.71-2.25 7.32-3.47-2.48 21.59-4.32 42.12-7.34 62.47-2.7 18.19-2.72 36.33-1.89 54.58.26 5.84.12 11.68.3 17.54.13 4.14.39 8.07 4.45 10.94 2.28 1.59 3.61 4.56 5.31 6.95 7.28 10.15 10.35 11.04 22.26 5.94 8.64-3.72 16.78-8.21 26.83-8.37 4.76-.1 10.83-3.11 13.85-6.8 5.12-6.31 11.81-9.28 18.31-13.24 8.46-5.15 17.49-9.75 23.53-18.35 2.27-3.21 6.37-5.13 9.62-7.65 4.22-3.24 9.55-5.7 12.41-9.89 5.5-8.06 13.2-13.5 20.29-19.65 9.83-8.51 20.29-16.31 28.63-26.47 1.1-1.33 3.63-1.51 6.72-2.68 0 6.27-.6 11.05.1 15.64 2.3 15.21 4.41 30.57 18.44 40.65 2.73 1.95 4.56 5.35 6.35 8.35 5.88 9.78 14.31 15.46 25.61 17.22 7.02 1.08 13.91 3.27 20.94 3.91 9.39.86 19.05 2.02 28.23.64 12.06-1.84 23.94-5.6 32.11-16.09 11.41-14.65 25.76-25.77 41.48-35.44 11.13-6.83 20.74-15.45 29.29-25.5 10.73-12.61 22.38-24.44 33.77-36.48 2.1-2.23 4.85-3.87 10.46-8.26-4.02 12.03-5.82 20.48-9.5 28.54-6.15 13.45-10.7 27.5-13.47 42.08-1.66 8.72-3.38 17.43-5.57 26.01-3.92 15.43-8.78 30.64-12.23 46.17-4.47 20.17-7.01 40.77-12.06 60.77-7.51 29.84-16.14 59.41-24.98 88.89-3.21 10.69-8.37 20.8-12.69 31.34-16.74 5.51-32.78 11.15-49.93 13.59-17.55 2.49-35.62 5.48-51.19 13.85-20.96 11.26-43.72 17.84-65.04 27.96-11.18 5.3-22.89 9.6-34.59 13.68-55.9 19.52-113.04 35.57-167.2 59.83-39.96 17.9-80.69 33.93-119.62 54.3-33.9 17.72-64.97 38.82-93.78 63.66-1.35 1.16-2.76 2.25-4.11 3.41-24.95 20.97-49.18 42.88-75.08 62.61-18.83 14.35-33.06 31.96-45.89 51.29-7.96 11.96-13.31 24.87-15.68 39.03-.48 2.87-1.14 5.79-2.17 8.51-8.02 20.92-6.62 41.5 1.43 62.12 2.66 6.8 8.17 12.95 4.85 21.6-.8 2.05 2.35 6.98 4.94 8.73 9.81 6.61 17.24 15.85 26.98 22.73 12.05 8.5 24.68 13.55 39 15.01 25.28 2.55 50.18 8.54 75.82 7.65 4.66-.17 9.36 1.39 14.05 1.79 11.19.98 22.5 3.04 33.58 2.29 17.66-1.22 35.31-3.72 52.74-6.9 13.46-2.47 26.87-3.47 40.5-3.51 16.02-.06 31.91-1.21 47.14-7.29 7.11-2.83 14.65-4.63 22.06-6.65 3.37-.92 7.05-2.24 10.3-1.68 15.62 2.73 28.95-2.81 42.21-10.02 12.42-6.76 25.06-13.21 38-18.93 12.43-5.5 25.45-9.62 37.97-14.88 5.95-2.5 11.76-5.68 16.96-9.47 9.59-7 19.76-12.82 30.12-18.56 16.98-9.38 35.05-17.33 48.18-32.53 1.46-1.67 3.97-2.4 5.98-3.59 5.56-3.29 11.57-6.01 16.58-10 11.08-8.85 22.09-17.88 32.31-27.7 17.01-16.34 32.99-33.79 50.16-49.97 16.91-15.95 31.42-33.48 41.96-54.29 3.19-6.31 7.23-12.24 11.44-17.93 7.66-10.37 14.45-21.23 20.51-32.57 1.37-2.57 3-5.01 4.66-7.39 4.35-6.24 9.71-11.99 12.97-18.75 3.79-7.86 9.09-14.81 13.5-22.12 5.09-8.41 11.81-15.86 16.52-24.89 4.86-9.32 11.93-17.48 18.23-26.02 8.92-12.07 15.21-25.64 19.41-39.73 10.83-36.24 25.67-71.07 36.55-107.27 1-3.33 2.96-6.37 4.91-10.47 12.93-2.86 26.07-6.45 39.42-8.58 19.19-3.07 38.45-5.46 57.27-10.68 15.88-4.4 32.2-7.24 47.97-12 15.21-4.57 29.75-10.42 45.91-12.59 19.12-2.55 37.71-9.05 56.56-13.72 6.86-1.7 13.78-3.11 20.68-4.59 9.75-2.08 20.03-2.8 29.13-6.46 12.25-4.92 24.47-8.94 37.64-8.78 8.68.11 12.31-10.94 7.98-17.05zM3636.71 2791.7c9.19-34.25 18.02-68.61 27.89-102.67 9.2-31.78 19.26-63.31 29.49-94.77 6.92-21.32 13.57-42.89 22.55-63.39 8.25-18.81 17.78-37.3 30.58-53.7 1.25-1.61 3.65-2.33 5.55-3.51 1.03 1.9 2.02 2.88 1.95 3.79-2.04 33.58-2.48 67.31-13.92 99.71-7.68 21.74-14.1 43.93-20.17 66.17-5.68 20.76-16.15 39.34-25.07 58.58-5.71 12.32-12.74 24-18.54 36.27-8.92 18.78-20.08 36.09-32.44 52.71-1.69 2.27-3.65 4.35-5.35 6.32-4.27-.75-3.06-3.52-2.52-5.51zm-666.16-87.83c5.78-19.78 11.36-39.62 17.22-59.38 2.5-8.36 5.35-16.64 8.24-24.88 9.73-27.73 19.46-55.43 29.4-83.07 2.77-7.69 5.82-15.35 9.45-22.66 6.81-13.68 14.34-26.98 21.15-40.66 3.92-7.87 7.52-15.97 10.4-24.27 6.26-18 15.46-34.25 26.91-49.39 4.27-5.66 7.8-11.86 11.77-17.75 2.76-4.08 6.35-6.86 11.63-6.52 3.97 19.97 1.97 46.33-3.4 64.2-4.74 15.79-7.96 32.03-12.25 47.97-3.39 12.51-7.35 24.87-11.19 37.27-.69 2.23-2.15 4.21-2.97 6.43-7.24 19.34-13.15 39.31-21.95 57.9-8.86 18.7-16.6 37.82-25.13 56.61-8.96 19.75-19.14 38.99-31.96 56.72-5.52 7.61-9.57 16.27-14.85 24.06-3.94 5.79-8.57 11.21-13.31 16.39-7.13 7.78-14.64 15.21-21.99 22.78.69-22.37 7.05-41.98 12.83-61.75zm-604.74-30.92c1.23-3.91 3.27-7.57 4.94-11.25-4.77-6.62-5.47-13.62-3.49-21.29 3.41-13.16 6.22-26.48 9.73-39.62 3.47-13 5.96-26.21 11.05-38.87 4.8-11.96 8.79-24.68 10.34-37.41 1.64-13.57 8.62-24.46 13.91-36.13 7.26-16.07 13.2-32.49 18.94-49.13 5.37-15.57 12.89-30.48 27.24-40.44 1.86-1.29 3.27-3.45 4.52-5.43 3.64-5.83 8.56-5.3 14.62-2.8 6.09 9.71 7.69 19.43 7.15 29.74-.37 7.1-.24 14.21-.23 21.31.06 18.56-4.48 36.18-9.98 53.77-8.67 27.76-21.28 53.84-33.05 80.28-3.33 7.47-8.21 14.27-12.64 21.21-5.4 8.47-10.78 16.95-16.67 25.07-13.19 18.19-26.64 36.19-40.1 54.2-1.37 1.82-3.44 3.12-6.41 5.77 0-3.98-.58-6.68.13-8.98zm450.77 139.64c-14.03 2.57-24.92-3.31-36.47-4.53-10.26-8.38-23.29-13.81-28.97-27.08-.91-2.16-1.88-4.41-2.12-6.71-1.97-17.97-.64-35.15 12.74-49.18 2.04-2.15 3.79-4.52 5.81-6.69 4.8-5.13 10.08-6.02 15.48-1.84 8.57 6.6 14.83 15.06 16.74 25.91 1.43 8.21 5.02 15.48 10.03 21.64 4.84 5.94 6.81 12.16 6.78 19.45-.03 9.33-.02 18.68-.02 29.03zm1365.61 620.86c-3.44 10.04-7.49 19.87-11.35 29.75-5.63 14.31-11.1 28.67-17.05 42.83-5.72 13.56-12.43 26.7-17.85 40.37-3.02 7.62-4.56 15.86-6.3 23.92-2.58 11.85-8.3 22.23-15.42 31.68-4.75 6.32-8.08 12.91-10.16 20.45-2.84 10.37-8.46 19.07-15.05 27.73-16.78 22.1-32.52 44.98-50.74 65.95-10.06 11.61-20.85 22.57-31.24 33.89-7.98 8.71-16.49 17.07-23.6 26.47-7.72 10.18-17.05 18.02-28 24.18-20.09 11.3-40.44 22.17-60.39 33.73-16.05 9.31-33.55 14.66-50.97 20.46-11.18 3.73-22.08 8.32-32.95 12.94-8.59 3.64-17.03 5.79-26.72 6.07-17.63.47-35.22 3.25-52.78 5.52-14.65 1.9-29.17 4.98-43.85 6.51-9.36.99-19.36 1.88-28.28-.35-14.07-3.51-28.25-3.83-42.31-4-17.66-.21-33.96-4.66-49.77-11.32-9.34-3.95-18.33-8.09-28.76-7.73-6.55.23-10.63-3.33-14.37-8.66-9.58-13.64-16.98-28.19-22.81-43.83-3.74-9.99-3.79-19.74-2.1-29.65 1.68-9.84 4.75-19.45 6.66-29.29 1.18-6.08 3.66-10.93 8.28-15.16 6.95-6.37 14.22-12.57 18.31-21.48.67-1.48 2.52-3.54 3.69-3.46 9.76.74 10.9-6.38 13.56-13.17 5.15-13.14 16.6-21.45 26.64-30.34 10.12-8.94 21.31-16.69 32.54-24.4 14.51-9.98 28.78-20.48 42.88-31.12 15.97-12.07 32.47-23.14 50.05-32.9 20.6-11.46 40.93-23.6 60.3-37.01 13.92-9.64 29.3-15.12 44.74-20.96 3.85-1.45 8.13-1.89 11.81-3.65 33.04-15.88 67.99-26.89 101.96-40.4 42.28-16.79 84.83-32.93 127.29-49.22 21.52-8.26 43.16-16.18 64.7-24.35 6.07-2.3 12.08-4.85 17.99-7.53 8.18-3.69 16.58-5.74 25.65-6.31 8.13-.52 16.17-2.82 24.23-4.44 3.95-.81 7.83-1.89 13.59-3.28.59 20-6.57 35.6-12.05 51.56z"/><path class="fil0" d="M3219.9 2682.52c8.71 5.67 18.97-3.24 27.09 3.97.63.57 2.23.07 3.36-.03.58-.07 1.13-.34 1.7-.51 8.28-2.55 14.28-7.09 17.9-15.6 4.89-11.48 6.03-22.5 1.22-33.12-8.4-10.22-17.84-11.86-28.74-6.23-1.54.79-3.61.66-5.03 1.56-6.35 3.99-12.56 8.19-18.8 12.31.26 9.28-9.02 11.32-13.44 16.54 1 2.39 2.23 3.98 2.25 5.61.11 8.59 6.37 11.47 12.49 15.5zm2412.73-.12c-.83 12.98-1.46 23.13-2.19 34.65-7.55 4.43-17.37 7.28-22.62 13.81-16.92 21.1-41.05 24.44-64.66 28.43-72.66 12.29-145.47 24.93-219.1 28.76-49.22 2.54-98.71 3.9-148.01-5.29-31.53-5.89-63.69-10.75-96.25-7.86-7.97.7-16.54 1.13-24.12-.93-33.01-9.04-66.16-6.77-99.49-3.29-4.33.45-8.91-1.45-11.96-2-8.03-5.25-1.66-12.02-4.02-16.43-3.29-6.12-7.61-10.67-1.88-18.11 4.82-6.24 6.76-14.55 16.21-16.51 16.83-3.51 33.47-8.04 50.34-11.25 11.3-2.15 22.86-3.03 34.34-3.97 64.29-5.28 128.18-15.57 193.09-13.14 55.41 2.07 110.67-3.25 166.01-6.05 72.55-3.69 145.33-2.8 218.03-3.69 4.47-.04 8.95 1.54 16.28 2.87zm-712.98-792c-1.86-14.4 6.24-21.33 1.53-31.87-9.05-20.19-.59-38.09 15.2-51.41 14.02-11.83 29.69-21.71 44.83-32.18 30.29-20.94 61.17-41.11 90.99-62.74 25.16-18.27 49.02-38.35 73.75-57.25 10.06-7.69 20.77-14.58 31.38-21.54 42.42-27.84 84.58-56.11 127.46-83.21 39.01-24.65 78.29-48.99 118.55-71.5 16.72-9.35 36.31-13.59 56.27-20.75 5.2 10.42 9.63 20.53 15.17 29.97 5.2 8.89 11.59 17.08 17.35 25.42-7.05 16.07-15.78 28.78-30.69 37.32-52.1 29.82-102.15 62.94-150.37 98.57-29.87 22.06-62.63 38.85-94.17 57.85-39.53 23.8-80.74 44.33-124.52 59.35-3.28 1.12-6.64 2.26-9.57 4.03-45.35 27.6-90.9 54.92-135.74 83.34-10.5 6.66-18.19 17.64-27.85 25.82-4.82 4.07-11.2 6.28-19.57 10.78zm512.53 1399.21c-4.72-2.74-9.51-5.37-14.11-8.26-5.94-3.72-11.15-5.54-19.11-3.7-21.23 4.94-40.39-2.05-58.94-13.07-30.68-18.22-62.4-34.75-93.15-52.87-23.71-13.98-46.3-29.87-69.97-43.95-51.47-30.6-103.91-59.59-154.8-91.12-36.05-22.33-70.24-47.65-105.18-71.76-8.53-5.88-17.56-11.37-24.96-18.49-10.69-10.29-20.09-21.9-30.58-33.55 2.82-5.47 5.33-10.37 7.38-14.34 3.94 0 6.4-.7 8.16.1 60.81 27.76 121.43 55.94 182.4 83.31 13.45 6.02 28.52 8.33 42.26 13.82 46.06 18.39 92.12 36.83 137.61 56.54 14.55 6.31 28.96 14.85 40.63 25.47 30.74 27.95 63 53.8 96.96 77.62 12.52 8.8 23.82 19.53 26.51 34.96 3.39 19.25 13.71 33.64 26.61 47.05 2.28 2.37 4.01 5.27 5.98 7.92-1.24 1.44-2.47 2.88-3.7 4.32zM4621.04 931.45c17.54.98 28.77 1.72 39.99 2.22 12.72.57 21.99 5.81 26.63 19.49-38.41 42.44-66.46 92.36-94.05 142.5-23.33 42.38-45.52 85.38-69.22 127.56-16.95 30.17-35.73 59.3-53.37 89.09-9.37 15.87-18.18 32.09-26.99 48.29-10.33 18.95-24.7 32.97-47.63 39.54-3.25-3.34-9.41-6.78-10.4-11.33-1.9-8.76-4.42-20.26-.46-26.93 21.62-36.34 24.48-79.07 41.74-116.65 9.02-19.67 19.76-38.54 29.87-57.68 13.44-25.47 26.7-51.02 40.61-76.21 23.81-43.14 42.18-89.4 72.49-128.83 15.35-19.95 28.95-41.98 50.79-51.06zm139.35 560.05c5.81-13.96 7.45-21.89 11.83-27.81 26.75-36.21 53.65-72.13 89.09-101.02 21.34-17.37 39.1-39.1 59.87-57.28 31.17-27.29 60.95-56.45 96.12-77.74h37.11c1.32 9.32.75 18.8 4.11 26.6 8.04 18.68.01 31.84-13.36 42.36-43.46 34.18-81.2 75.41-128.7 104.6-2.93 1.81-6.11 3.6-8.36 6.13-21.4 24.13-50.75 35.33-78.71 48.95-20.7 10.08-41.05 20.89-69 35.21zm482.12 695.72c-1.08-20.82 10.6-25.98 23.25-28.46 13.55-2.63 27.62-2.58 41.24-4.87 45.43-7.67 90.53-17.72 136.18-23.34 44.67-5.49 89.81-6.83 134.79-9.69 15.76-.99 29.46 4.57 41.01 15.36 6.67 6.2 7.23 15.25-.11 21.06-7.07 5.59-14.95 11.06-23.39 13.77-10.89 3.48-22.6 5.06-34.06 5.85-57.61 3.99-115.25 7.61-172.89 10.91-10.28.59-20.7-.86-31.05-1.53-25.36-1.67-50.69-4.28-75.93 1.84-5.48 1.33-11.43 1.19-17.15 1.03-6.73-.19-13.44-1.15-21.89-1.93zm-390.25 1026.63c5.02 1.29 8.54 1.45 11.3 3.01 43.17 24.46 86.99 47.95 129.11 74.13 28.29 17.57 54.17 38.99 81.08 58.78 17.04 12.55 24.12 30.27 25.46 50.67.67 10.4-6.9 16.43-18 14.42-16.88-3.05-31.91-7.48-46.15-20.06-21.39-18.91-47.34-32.61-70.94-49.1-38.93-27.18-76-56.47-102.25-97.02-4.35-6.71-8.41-13.82-11.15-21.29-1.29-3.54.83-8.32 1.54-13.54zM396.32 2682.4c.82 12.98 1.46 23.13 2.19 34.65 7.54 4.43 17.37 7.28 22.62 13.81 16.91 21.1 41.05 24.44 64.65 28.43 72.67 12.29 145.47 24.93 219.11 28.76 49.22 2.54 98.71 3.9 148.01-5.29 31.53-5.89 63.68-10.75 96.24-7.86 7.98.7 16.54 1.13 24.13-.93 33.01-9.04 66.15-6.77 99.49-3.29 4.33.45 8.9-1.45 11.96-2 8.02-5.25 1.65-12.02 4.01-16.43 3.3-6.12 7.62-10.67 1.88-18.11-4.81-6.24-6.75-14.55-16.2-16.51-16.83-3.51-33.47-8.04-50.34-11.25-11.3-2.15-22.86-3.03-34.34-3.97-64.3-5.28-128.18-15.57-193.09-13.14-55.42 2.07-110.67-3.25-166.01-6.05-72.56-3.69-145.33-2.8-218.03-3.69-4.47-.04-8.96 1.54-16.28 2.87zm712.97-792c1.87-14.4-6.23-21.33-1.52-31.87 9.04-20.19.59-38.09-15.21-51.41-14.01-11.83-29.69-21.71-44.82-32.18-30.3-20.94-61.17-41.11-90.99-62.74-25.16-18.27-49.02-38.35-73.76-57.25-10.06-7.69-20.76-14.58-31.38-21.54-42.41-27.84-84.57-56.11-127.45-83.21-39.01-24.65-78.29-48.99-118.55-71.5-16.73-9.35-36.31-13.59-56.28-20.75-5.19 10.42-9.62 20.53-15.16 29.97-5.21 8.89-11.59 17.08-17.36 25.42 7.06 16.07 15.79 28.78 30.7 37.32 52.1 29.82 102.14 62.94 150.37 98.57 29.87 22.06 62.63 38.85 94.17 57.85 39.53 23.8 80.74 44.33 124.52 59.35 3.28 1.12 6.63 2.26 9.57 4.03 45.35 27.6 90.89 54.92 135.73 83.34 10.51 6.66 18.19 17.64 27.85 25.82 4.82 4.07 11.21 6.28 19.57 10.78zM596.77 3289.61c4.71-2.74 9.5-5.37 14.11-8.26 5.94-3.72 11.14-5.54 19.1-3.7 21.24 4.94 40.4-2.05 58.95-13.07 30.68-18.22 62.39-34.75 93.15-52.87 23.71-13.98 46.29-29.87 69.97-43.95 51.47-30.6 103.91-59.59 154.8-91.12 36.05-22.33 70.24-47.65 105.18-71.76 8.53-5.88 17.56-11.37 24.96-18.49 10.69-10.29 20.09-21.9 30.58-33.55-2.82-5.47-5.34-10.37-7.38-14.34-3.94 0-6.4-.7-8.16.1-60.81 27.76-121.43 55.94-182.41 83.31-13.44 6.02-28.51 8.33-42.26 13.82-46.06 18.39-92.11 36.83-137.61 56.54-14.55 6.31-28.95 14.85-40.63 25.47-30.73 27.95-62.99 53.8-96.95 77.62-12.53 8.8-23.82 19.53-26.51 34.96-3.39 19.25-13.7 33.64-26.61 47.05-2.28 2.37-4.01 5.27-5.98 7.92 1.23 1.44 2.47 2.88 3.7 4.32zm811.14-2358.16c-17.55.98-28.77 1.72-39.99 2.22-12.72.57-21.99 5.81-26.63 19.49 38.41 42.44 66.46 92.36 94.05 142.5 23.33 42.38 45.52 85.38 69.21 127.56 16.96 30.17 35.74 59.3 53.37 89.09 9.38 15.87 18.18 32.09 26.99 48.29 10.33 18.95 24.7 32.97 47.63 39.54 3.26-3.34 9.41-6.78 10.41-11.33 1.9-8.76 4.41-20.26.46-26.93-21.63-36.34-24.49-79.07-41.74-116.65-9.02-19.67-19.76-38.54-29.87-57.68-13.45-25.47-26.71-51.02-40.61-76.21-23.81-43.14-42.19-89.4-72.5-128.83-15.34-19.95-28.94-41.98-50.78-51.06zm-139.35 560.05c-5.81-13.96-7.46-21.89-11.83-27.81-26.75-36.21-53.65-72.13-89.11-101.02-21.32-17.37-39.09-39.1-59.85-57.28-31.17-27.29-60.96-56.45-96.13-77.74h-37.11c-1.31 9.32-.74 18.8-4.1 26.6-8.05 18.68-.01 31.84 13.36 42.36 43.45 34.18 81.19 75.41 128.71 104.6 2.92 1.81 6.1 3.6 8.34 6.13 21.41 24.13 50.76 35.33 78.71 48.95 20.71 10.08 41.06 20.89 69.01 35.21zm-482.13 695.72c1.09-20.82-10.59-25.98-23.24-28.46-13.55-2.63-27.62-2.58-41.25-4.87-45.43-7.67-90.53-17.72-136.17-23.34-44.67-5.49-89.82-6.83-134.79-9.69-15.76-.99-29.47 4.57-41.03 15.36-6.65 6.2-7.21 15.25.12 21.06 7.06 5.59 14.95 11.06 23.39 13.77 10.89 3.48 22.6 5.06 34.07 5.85 57.61 3.99 115.24 7.61 172.89 10.91 10.27.59 20.7-.86 31.04-1.53 25.37-1.67 50.7-4.28 75.94 1.84 5.48 1.33 11.43 1.19 17.15 1.03 6.72-.19 13.43-1.15 21.88-1.93zm390.26 1026.63c-5.03 1.29-8.54 1.45-11.3 3.01-43.18 24.46-86.99 47.95-129.12 74.13-28.28 17.57-54.17 38.99-81.07 58.78-17.05 12.55-24.13 30.27-25.46 50.67-.68 10.4 6.89 16.43 17.99 14.42 16.89-3.05 31.92-7.48 46.15-20.06 21.4-18.91 47.35-32.61 70.95-49.1 38.93-27.18 76-56.47 102.24-97.02 4.36-6.71 8.41-13.82 11.16-21.29 1.29-3.54-.84-8.32-1.54-13.54zm3057.61 779.61c.98 6.42 1.79 11.86 2.59 17.06-1.45 2.17-2.3 4.19-3.78 5.5-16.62 14.58-33.93 28.1-53.24 39.16-14.93 8.57-28.81 18.96-43.27 28.38-52.51 34.22-109.85 50.05-172.76 47.93-31.61-1.06-61.39-9.22-91.49-16.97-27.58-7.1-54.37-16.57-79.69-29.56-16.6-8.52-32.68-18.21-48.32-28.4-7.36-4.79-13.14-12-20.64-19.07-5.25 1.91-9.27 6.58-13.75 10.49-4.7 4.11-9.05 8.64-13.89 12.55-32.27 25.94-63.88 52.91-100.85 72.14-14.64 7.62-29.9 14.64-45.66 19.31-11.65 3.45-24.58 2.58-36.93 3.78-19.41 1.89-38.7.23-57.93-2.23-4.77-.61-9.52-1.67-14.14-3.01-13.15-3.87-25.61-9.35-39.45-11.89-12.41-2.29-24.29-9.9-35.17-17.03-6.27-4.11-11.86-8.46-19.14-11.25-6.81-2.61-12.4-8.5-18.48-13.03-2.74-2.04-5.77-3.91-7.94-6.49-14.73-17.35-34.65-29.73-45.28-49.57-3.18.6-4.9.39-5.75 1.17-12.65 11.6-24.93 23.62-37.81 34.95-23.35 20.57-47.06 40.74-77.03 51.45-8.48 3.02-16.88 6.31-25.49 8.89-16.69 5.02-33.7 6.76-51.26 6.81-47.59.15-93.33-8.29-138.61-22.91-34.8-11.23-65.91-28.57-96.01-48.38-8.6-5.66-15.9-13.3-23.79-20.02-6.28-5.35-12.59-10.69-19.62-16.65-3.05 2.3-6.17 3.86-8.22 6.31-20.64 24.86-45.3 44.06-75.1 57.15-33.62 14.78-67.33 29.01-102.87 38.63-28.96 7.84-58.07 13.18-88.2 10.35-1.37-.12-2.77.03-4.16.07-46.81 1.62-90.43-10.94-131.74-31.52-25.5-12.71-47.08-31.18-66.01-52.58-6.77-7.66-13.77-15.1-20.01-21.91-2.17.12-3.12-.14-3.52.22-30.91 27.9-67.61 46.03-106.32 59.33-31.33 10.76-63.64 19.51-96.15 25.7-29.87 5.7-60.59 4.22-90.87-.12-21.3-3.05-42.47-7.23-61.88-16.66-19.83-9.64-39.24-20.28-58.19-31.57-27.24-16.24-53.93-33.41-78.83-53.18-5.36-4.26-10.33-9.01-15.59-13.64.66-6.89 1.25-13.02 1.87-19.46 4.62-1.94 9.21-3.41 13.37-5.72 9.55-5.3 18.42-3.81 27.59 1.17 29.79 16.21 59.77 32.08 89.59 48.23 20.14 10.89 40.78 20.65 62.68 27.4 7.87 2.42 16.05 4.31 24.23 5.22 31.02 3.38 62.08 2.06 93.05-.84 8.2-.78 16.31-3.03 24.32-5.12 34.26-8.91 67.91-19.42 98.7-37.56 24.32-14.34 46.01-30.96 54.39-60.83 7.78.64 15.47 2.27 21.34-4.53 9.15-10.58 19.92-10.99 31.36-3.53 1.12.72 2.3 1.34 4.16 2.41 5.13 14.4 12.62 28.3 21.02 41.84 19.66 31.64 47.13 54.09 80.78 69.18 22.93 10.27 46.92 15.1 72.24 16.66 20.88 1.29 41.57.52 62.14-1.07 15.69-1.22 31.41-5.52 46.5-10.38 22.38-7.19 44.9-14.64 66.11-24.63 25.03-11.81 49.25-25.66 64.86-50.28 3.26-5.16 8.13-9.4 12.71-13.57 2.42-2.2 5.77-4.6 8.79-4.69 8.18-.25 14.28-4.12 20.58-8.69 8.77-6.35 19.14-5.63 25.82 3.12 16.68 21.84 39.24 36.87 60.9 52.49 18.97 13.69 39.93 25.02 61.12 35.07 20.57 9.77 43.01 14.76 65.69 18.2 19.24 2.94 38.52 3.71 57.94 4.51 41.04 1.69 75.95-12.64 106.86-38.01 20.31-16.66 40.22-33.9 57.37-54 1.76-2.05 4.02-3.69 6.14-5.4 7.44-5.95 14.92-11.84 23.24-18.44 1.66.66 4.77 1.92 8.96 3.61 3.49-1.79 7.66-3.92 11.78-6.03 1.37.51 2.99.64 3.86 1.51 11.19 11.34 21.71 23.42 33.55 34.03 14.37 12.91 29.46 25.12 44.92 36.73 27.56 20.67 59.8 31.77 92.31 41.07 15.65 4.48 32.77 4.01 49.27 5.29 35.96 2.8 65.9-12.41 93.77-32.67 15.57-11.32 30.55-23.51 45.3-35.91 14.74-12.39 28.96-25.42 43.21-38.38 7.66-6.98 14.6-14.75 22.41-21.54 5.74-5 13.07-7.05 21.62-9.12 1.9 6.71 3.52 12.39 5.44 19.17 7.82-1.05 13.75 1.24 17.88 9.32 10.61 20.81 27.08 36.03 47.4 47.7 30.98 17.8 64.57 28.3 98.75 37.56 29.04 7.87 58.87 7.86 88.49 8.13 40.49.35 77.16-14.03 112.24-32.97 28.63-15.48 57.64-30.26 85.69-46.69 14.71-8.62 28.14-10.14 42.71-1.49 1.18.7 2.52 1.09 5.22 2.24zM3805.74 4349c.95 6.1 1.89 12.12 3.1 20.01-3.8 3.19-7.85 6.95-12.27 10.23-15.5 11.5-30.13 24.1-47.5 33.15-12.13 6.33-23.27 14.76-34.41 22.87-18.02 13.11-38.54 21.62-58.28 31.4-24.98 12.4-52.5 17.28-80.15 19.23-19.98 1.4-40.21 1.49-60.18.06-15.07-1.07-30.05-4.89-44.82-8.53-18.15-4.49-36.11-9.82-54.01-15.22-23.3-7.01-45.2-17.38-66.54-28.97-9.13-4.95-18.39-9.8-26.96-15.62-8.49-5.78-16.19-12.73-25.19-19.93-6.93 7.05-14.01 13.46-20.15 20.65-33.82 39.61-76.28 64.87-126.78 76.82-13.43 3.19-27.11 5.32-40.47 8.77-6.55 1.68-13.02 4.61-18.78 8.18-7.88 4.89-15.92 7.76-25.24 8.45-43.58 3.19-87.19 2.63-130.79 1.71-13.73-.29-27.54-3.28-41.02-6.35-8.64-1.99-16.78-6.28-25.06-9.74-4.44-1.85-8.48-5.12-13.05-6.05-12.89-2.58-23.06-10.4-31.65-18.86-7-6.92-14.69-13.36-22.63-17.62-21.32-11.44-37.02-28.54-52.96-45.76-6.05-6.52-12.26-12.88-18.15-19.07-1.88.25-3.61-.05-4.44.68-36.19 31.59-78.74 51.02-124.12 65-14.58 4.47-29.32 8.35-43.98 12.53-41.34 11.81-83.2 12.07-125.53 6.5-29.91-3.94-57.17-14.21-83.88-28.07-23.39-12.12-44.89-26.88-67.15-40.65-16.49-10.21-32.16-21.37-47.51-33.08-4.94-3.77-9.44-8.09-15.08-12.98.81-6.43 1.64-13.07 2.38-18.95 25.86-12.43 24.65-13.5 51.14.32 22.69 11.83 44.99 24.38 67.42 36.73 24.91 13.73 50.42 26.08 77.69 34.43 4.59 1.4 9.32 2.43 14.07 3.19 34.45 5.52 69.36 5.64 103.28-.57 47.72-8.73 93.94-23.17 134.7-51.44 17.66-12.26 31.45-26.84 38.12-47.56.39-1.2 1.65-2.12 3.06-3.82 5.84-.25 12.83 3 18.37-3.37 11.27-12.98 23.65-12.19 34.65-3.37 7.78 14.54 14.21 27.51 21.47 39.99 20.64 35.47 50.92 59.74 88.82 74.72 22.45 8.87 45.61 15.79 68.22 24.27 11.51 4.3 24.23 6.21 36.57 7.31 35.34 3.14 70.49 2.86 105.43-5.53 23.63-5.67 47.05-11.52 69.61-20.64 12.97-5.26 24.92-11.14 34.19-22.55 6.88-8.48 16.37-14.83 24.74-22.1 19.77-17.19 31.96-39.55 42.78-62.83 1.75-3.77 3.2-7.67 4.65-11.18 1.5-1.01 2.6-1.83 3.77-2.56 11.33-7.07 22.13-7.63 31.54 3.21 5.78 6.67 12.9 6.81 19.81 4.28 1.26 1.44 1.94 1.89 2.12 2.5 8.4 26.91 28.09 43.99 51.33 57.37 19.79 11.4 40.28 21.62 62.57 27.53 16.02 4.26 32.14 8.23 47.96 13.13 17.45 5.4 35.58 5.19 53.37 6.34 17.83 1.16 35.92-.36 53.8-1.88 18.77-1.6 36.53-7.85 53.32-16.09 23.61-11.55 46.78-23.99 70.1-36.14 17.78-9.28 35.63-18.45 53.18-28.15 9.88-5.47 19.34-6.79 29.51-1.21 3.56 1.95 7.55 3.12 11.89 4.88zm-1464.07 549.33c23.43 1.13 41.57 15.18 60.77 26.46 4.82 2.8 6.85 10.38 9.85 15.25-11.79 39.45-39.66 55.28-77.42 57.43-10.55.59-21.12 4.11-31.74-.62-2.58-1.15-6.71-.94-9.34.34-29.01 13.97-53.97 2.7-78.47-12.08-1.83-1.12-3.77-2.05-6.86-3.71-27.16 9.03-52.68 8.34-66.83-22.86-14.41 1.07-25.23 5.79-35.71 10.67-9.53 4.43-18.62 4.45-28.14 1.24-19.5-6.57-37.41-15.69-51.4-31.37-4.97-5.57-10.49-10.63-17.02-17.18-11.29 2.05-22.95 3.49-34.25 6.38-24.15 6.19-45.03.36-62.02-17.12-13.8-14.21-30.66-22.36-48.3-30.16-12.52-5.54-23.97-13.45-38.1-21.55-25.91-.49-53.93-4.73-82.33-11.77-39.49-9.77-65.17-33.97-89.42-64.31-21.25-26.58-28.7-57.26-35.68-88.47-6.33-28.34-7.27-57.36-7.14-86.57.12-31.2-1.19-62.3 3.93-93.29 3.86-23.35 6.31-46.93 16.99-68.6 1.24-2.54.19-6.2.21-10.57-20.32-9.2-40.71-18.37-61.04-27.62-24.52-11.15-48.31-23.36-66.74-42.9.34-19.62 6.04-35.06 20.66-46.67 3.35-2.65 6.72-5.73 8.9-9.32 20-32.96 52.43-46.04 87.35-55.44 6.2-1.66 12.43-3.66 18.21-6.45 34.42-16.58 67.61-8.49 98.92 7.29 27.79 14.03 53.97 31.34 80.52 47.76 5.31 3.29 9.77 8.58 13.45 13.76 16.06 22.66 31.71 45.62 48.51 69.91 37.6-1.83 57.37 26.17 78.57 51.84 6.81 8.26 13.59 16.63 19.38 25.59 3.87 5.99 8.68 7.86 15.26 9.86 31.44 9.57 54.4 29.81 68.14 59.64 5.51 11.92 10.23 21.73 24.81 26.84 14.1 4.95 22.98 19.2 29.27 33.14 6.17 13.68 11.3 27.86 16.49 41.95 4.8 13.1 9.06 26.39 13.2 38.48 2.8 2.05 4.34 3.94 6.19 4.37 56.52 13.08 85.16 54.29 105.13 104.14 2.77 6.95 4.37 14.36 6.01 19.83 16.03 13.11 30.19 26.42 46.06 37.18 14.67 9.96 20.89 23.87 25.32 39.64 1.74 6.17 3.65 12.28 5.85 19.64zm-623.81-628c-13.74 3.34-26.2 6.45-38.72 9.38-24.06 5.64-48.09 11.34-72.22 16.69-29.21 6.47-43.69 28.04-57.82 53.92 17.15 9.48 32.83 17.41 43.68 33.6 9.03 13.43 26.69 17.29 43.61 16.73 12.11-.38 19.87-9.57 17.99-21.56-1.17-7.39-3.99-14.56-4.82-21.97-1.32-11.59 5.58-17.55 17.87-16.46 13.8 1.23 18.82 5.66 21.81 19.3 4.29 19.61 1.43 38.41-5.85 56.89-7.08 17.96-12.9 36.46-20.82 54.02-7.45 16.49-7.5 36.12-21.36 49.92-2 2-2.49 5.83-3.07 8.94-7.51 39.7-5.52 79.11 4.79 118.04 6.02 22.8 12.43 45.57 19.99 67.9 5.11 15.1 9.74 31.74 19.55 43.56 13.55 16.34 31.05 29.76 48.17 42.68 20.92 15.81 45.08 24.44 71.58 26.25 22.85 1.55 25.89-1.2 25.26-23.93-.19-6.35.49-12.78 1.42-19.07 2.35-15.96 4.71-31.95 7.71-47.8 9.41-49.62 15.31-99.86 30.11-148.51 15.76-51.83 11.26-104.36-1.25-156.19-2.69-11.15-9.69-21.39-15.46-31.63-5.77-10.27-14.38-19.32-18.39-30.16-7.91-21.35-28.79-34.36-34.62-56.93-1.12-4.34-7.04-8.2-11.59-10.73-12.18-6.77-24.78-12.85-37.33-18.95-9.57-4.66-19.31-8.93-30.22-13.93zm171.84 146.49c5.02 20.81 10.8 35.21 11.49 49.84.95 20.19-1.41 40.61-3.29 60.85-1.77 19.25-4.82 38.39-7.2 57.6-3.95 31.79-2.61 64.37-15.08 94.92-6.71 16.39-5.33 34.22-3.3 50.99 4.29 35.33 5.29 70.21-4.61 105.09 19.46-.68 19.36-.8 29.15-10.71 13.88-14.05 21.49-31.69 30.6-48.84 24.1-45.42 34.39-94.8 44.97-144.23 1.53-7.21.79-14.97.69-22.48-.33-26.97-8.08-52.98-10.68-79.6-1.72-17.68-6.94-33.94-16.36-48.31-12.95-19.71-27.62-38.32-41.97-57.06-2.14-2.8-6.59-3.81-14.41-8.06zm114.62 94.25c5.26 17.63 9.83 29.76 12.38 42.29 2.97 14.67 5.32 29.65 5.97 44.57 2.39 56.86-12.65 110.71-31.5 163.42-13.66 38.18-32.25 74.21-56.41 106.32 15.03 27.1 36.77 22.6 60.62 15.72 4.33-14.05 11.72-26.54 20.15-38.96 10.08-14.84 16.39-32.52 22.67-49.58 5.9-16.03 9.69-32.83 14.32-49.3 1.45-5.12 2.99-10.23 3.92-15.45 3.79-21.07 7.56-42.16 10.86-63.32.8-5.16.51-10.78-.64-15.89-8.45-37.84-19.82-74.85-35.08-110.45-4.3-10.04-8.75-21.91-27.26-29.37zm104.62 169.47c-2.83 1.06-5.91 1.41-6.15 2.43-3.29 13.53-6.69 27.06-9.07 40.74-7.77 44.5-21.01 87.15-41.25 127.59-1.86 3.69-3 7.85-3.8 11.94-2.46 12.41-4.58 24.88-7.31 39.92 13.9 27.74 38.85 32.92 68.58 26.24 8.97-18.07 14.09-42.88 14.78-68.59.45-17.11-.09-34.43 2.32-51.3 6.41-44.94-4.38-86.97-18.1-128.97zm46.65 18.97c10.58 39.2 11.91 77.66 9.35 116.28-1.84 27.84-2.97 55.83-7.23 83.32-2.32 15.02 3.88 24.92 11.45 35.24 6.67 9.1 18.19 9.31 24.44.13 7.22-10.57 14.43-21.53 19.25-33.29 5.21-12.74 10.02-26.44 10.85-39.98 1.74-28.78 1.85-57.46-4.04-86.42-5.26-25.79-17.14-45.79-36.13-62.44-6.86-6.01-12.2-15.62-27.94-12.84zm110.69 121.99c-1.24 13.28-1.83 19.39-2.38 25.48-1.2 13.89-2.28 27.78-3.6 41.66-.93 9.92-5.11 17.78-12.11 25.45-17.81 19.57-17.51 22.4-3.9 44.7 1.63 2.68 3.94 4.98 5.67 7.09 22.54 7.53 30.93-16.32 47.48-18.2 13.08-46.78 14.99-88.78-31.16-126.18zm70.93 123.29c8.01 1.9 14.97 4.09 22.11 4.97 2.24.27 6.14-2.46 7.07-4.74.94-2.28.12-6.82-1.68-8.39-5.98-5.25-12.74-9.59-21.14-15.68-2.6 9.72-4.44 16.62-6.36 23.84zM4004.47 275.55c-6.16-1.83-12.33-4-18.04-6.94-33.95-17.53-67.35-10.34-99.08 4.59-28.16 13.24-54.81 29.83-81.8 45.51-5.4 3.16-9.99 8.31-13.81 13.4-16.69 22.21-32.96 44.73-50.41 68.55-37.54-2.86-58.06 24.59-79.96 49.67-7.03 8.07-14.06 16.24-20.07 25.04-4.04 5.88-8.9 7.62-15.52 9.44-31.7 8.71-55.21 28.31-69.76 57.75-5.83 11.77-10.82 21.44-25.53 26.16-14.24 4.56-23.5 18.55-30.16 32.31-6.55 13.51-12.07 27.55-17.65 41.49-5.16 12.97-9.78 26.14-14.24 38.11-2.87 1.98-4.45 3.81-6.32 4.19-56.84 11.53-86.6 51.94-107.94 101.23-2.96 6.86-4.75 14.22-6.55 19.65-16.39 12.67-30.89 25.59-47.05 35.91-14.95 9.55-21.54 23.28-26.41 38.92-1.9 6.12-3.98 12.18-6.38 19.48-23.45.49-41.98 14.03-61.48 24.78-4.88 2.68-7.13 10.18-10.26 14.98 10.71 39.75 38.13 56.36 75.82 59.52 10.53.9 20.99 4.7 31.74.26 2.62-1.08 6.74-.75 9.33.59 28.61 14.77 53.87 4.18 78.77-9.93 1.87-1.06 3.82-1.93 6.96-3.5 26.89 9.76 52.43 9.78 67.43-21.04 14.38 1.49 25.07 6.5 35.4 11.65 9.41 4.69 18.49 4.97 28.1 2.01 19.68-6.02 37.83-14.65 52.25-29.95 5.11-5.43 10.77-10.33 17.47-16.7 11.24 2.36 22.86 4.12 34.06 7.31 23.98 6.85 45.01 1.59 62.47-15.4 14.19-13.84 31.27-21.51 49.11-28.83 12.67-5.21 24.34-12.79 38.68-20.51 25.91.22 54.03-3.25 82.63-9.51 39.73-8.67 66.08-32.17 91.13-61.82 21.97-25.99 30.27-56.46 38.1-87.47 7.11-28.15 8.83-57.14 9.52-86.33.72-31.2 2.88-62.25-1.38-93.37-3.23-23.45-5.03-47.09-15.11-69.04-1.16-2.57-.02-6.21.08-10.58 20.57-8.62 41.2-17.23 61.78-25.94 24.81-10.46 48.92-22.03 67.89-41.05.2-19.61-5.09-35.21-19.37-47.22-3.28-2.74-6.57-5.9-8.65-9.56-19.08-33.5-51.14-47.45-85.79-57.81zm-733.49 671.03c-8.07 1.69-15.08 3.68-22.24 4.36-2.25.21-6.08-2.63-6.94-4.92-.88-2.32.06-6.84 1.9-8.36 6.13-5.09 13-9.23 21.57-15.09 2.34 9.79 3.99 16.73 5.71 24.01zm78.41-54.03c.67 9.95 4.62 17.92 11.4 25.78 17.28 20.05 16.9 22.87 2.69 44.79-1.72 2.63-4.09 4.86-5.87 6.94-22.73 6.89-30.46-17.16-46.96-19.5-11.79-47.14-12.55-89.16 34.6-125.3.88 13.33 1.3 19.45 1.68 25.55.83 13.91 1.53 27.84 2.46 41.74zm102.26 13.27c1.91 15.08-4.55 24.81-12.4 34.92-6.91 8.91-18.45 8.81-24.43-.53-6.94-10.78-13.85-21.92-18.34-33.81-4.86-12.87-9.28-26.71-9.75-40.26-.96-28.82-.29-57.49 6.41-86.28 5.97-25.64 18.38-45.31 37.83-61.43 7.01-5.81 12.63-15.28 28.26-12.06-11.64 38.88-14.01 77.3-12.53 115.96 1.09 27.9 1.46 55.91 4.95 83.49zm106.52-44.89c1.75 3.74 2.78 7.92 3.46 12.04 2.12 12.47 3.92 24.98 6.22 40.1-14.65 27.34-39.73 31.84-69.27 24.34-8.46-18.3-12.91-43.24-12.89-68.95.03-17.13 1.02-34.43-.92-51.35-5.19-45.12 6.75-86.83 21.63-128.43 2.79 1.13 5.87 1.58 6.08 2.6 2.92 13.61 5.94 27.23 7.95 40.97 6.55 44.69 18.61 87.7 37.74 128.68zm117.21 19.59c-15.76 26.67-37.36 21.58-61.03 14.04-3.93-14.16-10.99-26.85-19.07-39.49-9.67-15.12-15.49-32.96-21.3-50.18-5.46-16.19-8.78-33.09-12.96-49.68-1.31-5.16-2.71-10.32-3.5-15.56-3.21-21.16-6.41-42.35-9.12-63.59-.67-5.16-.22-10.8 1.07-15.86 9.49-37.59 21.86-74.27 38.09-109.44 4.59-9.94 9.35-21.67 28.06-28.62-5.74 17.48-10.64 29.48-13.54 41.94-3.37 14.57-6.13 29.49-7.18 44.38-3.95 56.78 9.61 111.02 27.02 164.23 12.6 38.53 30.21 75.05 53.46 107.83zm67.9-29.72c-19.44-1.21-19.33-1.32-28.84-11.5-13.49-14.42-20.63-32.27-29.26-49.66-22.84-46.07-31.78-95.71-40.99-145.4-1.35-7.27-.39-15-.09-22.51 1.09-26.95 9.54-52.73 12.85-79.28 2.21-17.61 7.86-33.73 17.67-47.84 13.5-19.34 28.68-37.55 43.55-55.87 2.2-2.75 6.68-3.64 14.61-7.68-5.59 20.67-11.76 34.9-12.85 49.51-1.5 20.15.3 40.64 1.62 60.92 1.24 19.29 3.77 38.51 5.63 57.77 3.07 31.9.83 64.42 12.47 95.3 6.24 16.57 4.39 34.36 1.9 51.07-5.27 35.18-7.21 70.03 1.73 105.17zm331.81-476.88c-17.42 9-33.3 16.51-44.61 32.39-9.38 13.18-27.14 16.56-44.03 15.54-12.1-.73-19.61-10.14-17.4-22.06 1.36-7.35 4.39-14.44 5.41-21.81 1.64-11.57-5.09-17.71-17.4-16.96-13.83.85-18.98 5.15-22.33 18.7-4.82 19.48-2.48 38.36 4.29 57.03 6.58 18.15 11.9 36.81 19.32 54.57 7 16.68 6.52 36.31 19.98 50.49 1.96 2.06 2.34 5.9 2.83 9.01 6.42 39.9 3.34 79.24-8.01 117.87-6.65 22.63-13.68 45.22-21.85 67.32-5.52 14.96-10.6 31.46-20.74 43.02-13.99 15.96-31.86 28.89-49.32 41.34-21.34 15.23-45.73 23.19-72.27 24.28-22.88.92-25.85-1.91-24.59-24.61.36-6.34-.15-12.79-.9-19.11-1.92-16.03-3.84-32.07-6.41-47.99-8.04-49.86-12.56-100.24-26.03-149.29-14.33-52.23-8.39-104.63 5.54-156.09 3-11.06 10.27-21.11 16.32-31.18 6.05-10.12 14.9-18.92 19.2-29.65 8.49-21.13 29.73-33.57 36.19-55.97 1.23-4.3 7.24-7.99 11.86-10.41 12.36-6.44 25.13-12.17 37.84-17.91 9.7-4.4 19.54-8.4 30.59-13.11 13.64 3.73 26.01 7.18 38.45 10.44 23.91 6.29 47.77 12.66 71.73 18.67 29.03 7.28 42.91 29.22 56.34 55.48zm-1422.43-156.8c23.42 5.41 44.83-3.28 65.36 7.17 12.29 13.67 12.19 28.55 2.66 45.43-9.11 16.14-21.55 31.14-22.42 52.96 4.44 3.03 9.41 7.05 14.94 10.05 52.01 28.26 104.17 56.24 156.19 84.48 52.94 28.74 102.94 62.12 152.03 96.93 3.83 2.71 7.53 5.74 11.7 7.82 20.54 10.33 35.15 27.63 51.24 43.15 10.77 10.4 22.58 20.23 31.11 32.31 12.57 17.82 32.8 31.13 35.69 57.01-18.92 17.92-43.4 27.36-65.54 39.08-1.46 2.29-3.41 3.93-3.3 5.42 1.72 22.18-10.01 36.94-25.97 50.15-14.64 12.11-29.7 22.88-48.5 27.47-10.02 2.46-19.87 5.54-30.91 8.64-14.78 28.22-40.09 45.36-68.4 59.14-10.89 5.29-21.27 11.68-31.86 17.57-21.76 12.1-43.95 15.96-67.25 1.94-4.34 4.71-8.18 8.6-11.72 12.75-17.05 20-33.63 40.41-51.13 60.01-14.7 16.45-33.28 25.73-54.83 32.35-39.95 12.26-77.4 11.19-112.62-10.96-6.27 3.62-11.54 5.8-15.8 9.26-27.07 22.02-60.05 29.19-92.64 37.36-37.26 9.33-74 7.18-110.76-4.06-14.77-4.52-27.32-12.33-39.95-20.29-8.82-5.56-17.47-10.56-27.93-12.72-22.41-4.61-27.3-16.82-27.88-38.86-.15-5.57 1.31-11.17 1.57-16.77.46-10.22.12-20.49.98-30.68.94-11.17 3.25-22.22 4.26-33.39 2.99-33.04 14.12-63.88 24.86-94.86 8.6-24.83 16.92-49.75 25.38-74.62.6-1.78 1.01-3.64 1.83-5.33 21.74-44.95 33.3-93.6 50.88-140.07 5.93-15.64 10.6-31.74 16.56-49.78-25.29-.97-48.54-1.88-71.79-2.7-3.75-.12-7.51.22-11.27.22-23.69-.02-33.33-11.8-24.42-39.99 3.04-9.67 9.42-18.27 14.04-27.48 3.29-6.54 6.17-13.29 8.74-18.86-4.64-11.02-12.7-16.05-20.29-21.44-6.13-4.36-12.53-8.33-18.75-12.53-18.56-12.53-29.39-28.14-24-52.25 1.47-6.57-2.23-14.39-3.91-21.56-1.71-7.33.53-13.23 6.65-17.06 7.11-4.48 14.9-7.87 22.11-12.2 25.71-15.46 51.38-30.99 76.94-46.73 24.17-14.89 50.51-24.45 77.39-33.1 15.07-4.84 29.2-12.56 44.21-17.66 25.68-8.73 51.7-16.44 77.61-24.51 8.91-2.78 17.72-6.49 26.85-7.78 20.74-2.95 41.24-.03 60.88 6.93 4.81 1.71 9.61 6.08 12.37 10.5 8.54 13.74 14.06 28.43 10.97 45.32-1.5 8.2-1.4 16.67-2.16 26.82zm438.19 419.14c-2.92-4.58-4.37-8.06-6.84-10.52-7.33-7.23-16.23-13.17-22.45-21.22-16.96-21.94-38.14-38.65-61.1-53.59-6.28-4.08-11.93-9.11-17.87-13.69-49.71-38.36-96.04-81.04-148.36-116.04-17.75-11.87-34.77-25.8-58.65-18.27-2.47.78-5.73.13-8.34-.73-21.37-7.01-43.72-12.06-63.73-21.89-28.08-13.79-56.69-24.77-87.36-30.38-8.72-1.61-15.93-4.9-21.5-13.58 16.1-39.98 15.4-84.04 25.78-125.97 2.37-9.59.98-20.51-.49-30.55-1.23-8.42-7.79-12.21-16.73-11.24-11.17 1.2-22.59 1.97-33.32 5.03-22.56 6.42-44.89 13.73-67.01 21.55-30.07 10.63-59.88 21.97-89.71 33.23-6.98 2.64-13.88 5.68-20.36 9.36-24.43 13.87-48.63 28.14-73 42.12-8.95 5.14-18.34 9.53-27.14 14.91-14.12 8.62-15.03 20.37-2.82 32.17 3.37 3.25 6.98 6.34 10.79 9.06 9.91 7.07 19.65 14.46 30.07 20.71 31.22 18.72 60.96 41.01 99.46 42.54 4.73 8.7 9.06 16.66 13.75 25.29-4.95 6.39-13.29 12.26-12.97 17.61 1.28 21.47-12.08 36.77-19.68 54.46-4.81 11.2-11.31 21.89-14.65 33.49-12.43 43.34-24.86 86.73-35.39 130.55-9.65 40.15-14.68 81.5-25.73 121.22-11.29 40.56-8.48 81.81-12.39 122.69-.42 4.43 1.14 9.05 1.66 12.7 10.11 7.64 19.52 13.88 27.9 21.27 16.28 14.36 36.04 20.53 56.62 22.12 27.01 2.08 54.42 3.22 80.37-8.06 4.24-1.84 9.04-2.59 13.67-3.31 15.14-2.35 29.17-7.18 41-17.25 21.62-18.4 43.19-21.16 69.66-7.13 30.86 16.38 61.87 8.6 90.19-10.18 3.85-2.56 7.79-5.33 10.76-8.81 24.33-28.48 50.96-54.64 81.31-76.57 9.97-7.21 21.02-16.77 35.51-8.33 6.6 3.84 12.99 1.03 18.68-2.19 23.71-13.35 47.31-26.93 70.8-40.69 9.28-5.44 15.3-13.7 18.16-24.16 1.23-4.53 1.69-9.54 4.01-13.45 4.91-8.31 11.5-15.8 22.4-13.76 14.82 2.8 27.93-2.81 41.09-7.31 19.6-6.71 34.67-17.43 36.21-41.3 1.22-18.71 12.59-30.71 31.06-35.65 5.19-1.38 10.11-3.76 16.68-6.26zM2657.5 306.7c9.23-16.41 17.51-30.78 25.36-45.38 1.5-2.77 1.32-6.45 1.75-8.87-2.4-1.7-3.13-2.66-3.87-2.66-11.03-.04-22.05.04-32.88.08-23.69 19.49-23.98 20.45-15.8 51.88 8.08 1.57 16.24 3.16 25.44 4.95zm-261.57 128.31c-20.6-8.99-39.86-17.38-60.75-26.49-3.98 11.51-10.23 20.61-11.31 31.11 9.63 7.05 19 6.62 28.3 6.8 12.12.24 24.13 1.23 35.66 5.61 1.27.48 3.34-1.16 6.76-2.48.41-4.36.87-9.54 1.34-14.55z"/><path class="fil0" d="M2431.6 876.08c-6.78-28.67-9.26-57.08-5.77-86.49 4.23-35.37 6.17-71 9.15-106.52.15-1.86 1.15-3.75.95-5.52-4.12-36.25 5.47-70.6 14.07-105.16 1.8-7.2 1.61-14.88 2.45-22.33 2.67-23.44 13.96-42.58 30.26-58.92 1.94-1.94 7.61-2.58 9.81-1.14 2.2 1.43 3.54 6.45 2.99 9.49-6.57 35.96-14.47 71.71-20.11 107.8-3.04 19.39-3.75 39.39-3.16 59.04 1.27 41.46-4.37 82.4-8.3 123.4-1.73 18.07-.29 35.42 1.21 53.14 1.34 15.87 1.83 31.83 2 47.75.06 5.47-1.01 11.47-3.46 16.26-1.87 3.63-6.63 7.79-10.28 7.96-3.48.15-8.9-3.78-10.47-7.27-4.58-10.14-7.67-20.95-11.34-31.49zm194.84.16c-13.63 1.19-19.18-5.61-23.15-13.05-4.39-8.22-7.85-17.13-10.39-26.11-13.84-48.8-29.07-97.3-40.31-146.7-9.35-41.07-13.72-83.26-20.59-124.89-3.54-21.39-3.73-42.88-2.91-64.4.22-5.54.88-11.2 2.37-16.51 1.56-5.55 4.89-10.42 11.64-10.39 6.64.02 10.05 5.15 12.1 10.21 2.06 5.06 2.53 10.83 3.27 16.33 3.47 26.03 5.91 52.21 10.36 78.06 10.36 60.09 19.5 120.41 38.9 178.67 8.56 25.72 13.48 52.67 19.52 79.18 1.42 6.25.95 13 .8 19.51-.15 6.38-.98 12.74-1.61 20.09zm185.71-84.76c-11.59 3.55-20.07 1.37-26.96-5.9-8.4-8.85-17.29-17.49-24.16-27.47-22.85-33.18-45.3-66.58-64.07-102.44-18.66-35.67-39.24-70.35-59.18-105.36-13.92-24.44-28.39-48.6-42.11-73.14-3.05-5.47-5.2-11.98-5.64-18.17-.4-5.65 3.04-11.5 9.45-12.21 4.16-.47 10.27.44 12.68 3.21 9.84 11.25 20.14 22.56 27.47 35.44 31.03 54.58 65.27 107.35 92.78 163.94 6.14 12.6 13.19 25.01 21.51 36.27 21.85 29.59 36.91 63.02 54.98 94.74 1.69 2.94 2.01 6.69 3.25 11.09zm185.43-135.81c-10.45-2.43-17.3-5.2-24.23-5.39-13.19-.37-23.37-5.04-31-15.93-2.62-3.76-5.89-7.84-9.85-9.79-33.28-16.33-60.99-40.58-88.85-64.12-33.74-28.53-70.4-52.85-105.79-79.03-16.55-12.23-32.19-25.76-47.72-39.29-9.13-7.96-17.02-17.22-18.65-29.6 6.68-7.68 13.4-3.11 18.46-.62 12.59 6.2 24.81 13.33 36.55 21.08 54.07 35.68 107.14 72.77 157.79 113.28 23.44 18.75 47.65 36.56 71.32 55.03 5.1 3.98 10.07 8.51 13.9 13.69 8.84 11.94 16.94 24.42 28.07 40.69zM2549.44 394.3c-20.62-22.16-28.39-49.95-31.12-78.74-1.87-19.79-6.96-38.55-11.19-57.68-2.63-11.85-5.44-23.7-7.32-35.68-1.18-7.55 4.94-12.22 12.46-10.61 8.56 1.82 15.22 5.32 19.51 14 13.87 28.05 20.96 57.96 24.72 88.63 2.94 23.97 8.37 48.03 2.9 72.43-1.18 5.23-4.26 7.91-9.96 7.65zm-50.23-1.76c-10.39-4.11-20.68-8.52-31.2-12.27-47.82-17.09-82.34-50.98-113.49-89.2-4.05-4.97-4.08-10.15-1.52-15.73 3.14-6.85 8.88-9.42 15.89-9.52 7.05-.12 13.02 3 17.02 8.52 19.04 26.35 46.19 43.72 70.33 64.42 5.62 4.81 10.73 10.52 14.98 16.56 4.8 6.83 7.43 15.31 12.76 21.58 4.53 5.36 11.56 8.6 17.48 12.78-.74.95-1.49 1.9-2.25 2.86zm3250.27 2771.77c-1.55-15.17 4.37-27.76 12.89-39.32 2.75-3.71 7.3-7.25 11.68-8.41 17.87-4.78 36.2-5.93 54.35-1.85 7.99 1.79 15.52 5.69 23.2 8.76 22.34 8.98 44.82 17.63 66.92 27.16 12.92 5.57 24.87 13.4 37.86 18.74 23.18 9.54 45.79 19.85 66.14 34.73 21.49 15.72 43.11 31.27 64.77 46.75 6.06 4.35 12.72 7.88 18.7 12.35 5.12 3.82 6.7 9.2 4.66 15.56-1.98 6.22-5.8 12.88-4.96 18.79 3.05 21.72-7.61 34.76-24.92 44.54-5.8 3.27-11.74 6.33-17.46 9.76-7.1 4.24-14.57 8.11-19.46 17.54 1.87 5.11 3.95 11.27 6.4 17.28 3.44 8.47 8.48 16.54 10.48 25.31 5.9 25.57-3.45 35.3-24.42 33.66-3.32-.27-6.62-.84-9.95-.98-20.62-.91-41.24-1.76-63.69-2.68 4 16.38 7.01 30.95 11.13 45.2 12.3 42.35 19.09 86.2 35.15 127.5.6 1.53.84 3.22 1.25 4.83 5.72 22.59 11.33 45.23 17.19 67.8 7.33 28.16 15 56.22 15.32 85.66.1 9.94 1.36 19.89 1.4 29.84.05 9.06-.97 18.13-1.28 27.21-.17 4.97.72 10.02.2 14.94-2.07 19.45-7.25 29.91-27.39 32.41-9.41 1.18-17.41 4.99-25.6 9.29-11.74 6.15-23.4 12.17-36.78 15.13-33.3 7.35-65.95 6.67-98.27-4.22-28.23-9.51-56.92-18.19-79.31-39.57-3.51-3.36-8.03-5.66-13.32-9.29-32.71 17.11-65.93 15.41-100.39 1.75-18.6-7.36-34.38-16.87-46.23-32.47-14.09-18.57-27.33-37.79-41-56.69-2.84-3.91-5.96-7.63-9.47-12.11-21.59 10.78-40.95 5.79-59.35-6.44-8.96-5.97-17.69-12.33-26.94-17.79-24.08-14.19-45.26-31.13-56.35-57.13-9.54-3.53-18.05-6.94-26.73-9.82-16.3-5.39-28.86-15.97-40.96-27.71-13.2-12.81-22.53-26.69-19.45-46.19.21-1.31-1.41-2.9-2.53-5.04-18.76-11.92-39.74-22-55.23-39.17 4.39-22.7 23.21-33.05 35.6-47.93 8.38-10.08 19.53-17.94 29.79-26.39 15.31-12.59 29.47-26.87 48.36-34.55 3.83-1.55 7.33-3.97 10.9-6.11 45.88-27.33 92.45-53.33 141.31-75.03 48-21.31 96.11-42.39 144.11-63.72 5.11-2.27 9.78-5.48 13.92-7.83.77-19.38-9.18-33.52-16.1-48.43-7.24-15.61-6.27-28.78 5.55-40.01 18.9-7.8 37.23 1.4 58.33-1.74.04-9.02.73-16.52-.02-23.87zm-402.81 370.49c15.99 5.67 25.2 17.09 24.96 33.72-.31 21.23 12.25 31.77 29.13 39.08 11.33 4.92 22.53 10.79 35.83 9.37 9.79-1.04 15.1 6.06 18.85 13.75 1.77 3.62 1.83 8.08 2.6 12.17 1.79 9.47 6.53 17.19 14.36 22.65 19.81 13.82 39.73 27.5 59.77 41 4.81 3.24 10.25 6.17 16.36 3.24 13.42-6.45 22.52 2.8 30.83 9.86 25.31 21.54 47.01 46.55 66.54 73.47 2.37 3.28 5.66 6.01 8.9 8.55 23.73 18.6 50.61 27.67 79.06 15.36 24.39-10.55 43.29-6.61 61.11 11.21 9.75 9.74 21.84 14.99 35.06 18.14 4.04.97 8.24 1.97 11.85 3.89 22.17 11.81 46.49 12.73 70.53 12.79 18.32.04 36.23-4.02 51.65-15.58 7.92-5.95 16.69-10.79 26.18-16.85.71-3.18 2.41-7.17 2.35-11.12-.57-36.43 4.81-72.72-2.31-109.4-6.98-35.91-8.52-72.84-14.23-109.03-6.24-39.51-14.17-78.76-22.11-117.97-2.14-10.51-7.14-20.42-10.6-30.67-5.47-16.18-16.22-30.65-13.57-49.55.65-4.72-6.32-10.49-10.23-16.5 4.75-7.3 9.14-14.04 13.94-21.4 34.16 1.36 62.04-16.27 90.97-30.62 9.66-4.79 18.79-10.66 28.06-16.21 3.56-2.14 6.97-4.61 10.18-7.26 11.63-9.56 11.66-20.03-.23-28.66-7.41-5.37-15.4-9.91-22.96-15.09-20.56-14.08-40.97-28.41-61.6-42.39-5.47-3.71-11.36-6.9-17.34-9.71-25.6-12.07-51.18-24.21-77.02-35.72-19.02-8.48-38.27-16.52-57.77-23.79-9.27-3.45-19.33-4.94-29.12-6.79-7.83-1.49-13.91 1.4-15.58 8.76-2.01 8.78-4 18.34-2.58 27 6.21 37.81 2.5 76.75 13.92 113.23-5.54 7.3-12.15 9.7-19.98 10.51-27.51 2.8-53.6 10.49-79.4 20.71-18.4 7.29-38.53 10.19-57.92 14.89-2.38.57-5.3.92-7.43.05-20.6-8.34-36.63 2.78-53.17 12.03-48.75 27.28-92.73 61.77-139.41 92.2-5.58 3.63-10.93 7.69-16.77 10.85-21.36 11.6-41.28 24.9-57.83 43.11-6.07 6.67-14.34 11.3-21.34 17.18-2.37 2-3.89 4.98-6.8 8.82 5.63 2.69 9.82 5.13 14.31 6.72zm415.09-270.3c9.45-27.22 9.25-28.11-10.32-47-9.58-.81-19.33-1.65-29.08-2.39-.66-.04-1.37.74-3.62 2.08.22 2.16-.2 5.41.93 7.97 5.91 13.46 12.23 26.75 19.22 41.92 8.28-.93 15.6-1.76 22.87-2.58zm199.65 147.47c2.93 1.41 4.65 3 5.8 2.67 10.51-3.07 21.2-3.09 31.95-2.45 8.23.5 16.5 1.54 25.51-4.02-.21-9.37-5.11-17.85-7.81-28.31-19.13 6.58-36.76 12.65-55.61 19.14.06 4.47.11 9.09.16 12.97z"/><path class="fil0" d="M5898.63 3786.66c8.02-24.88 12.22-49.85 11.2-76.09-1.25-31.6-.46-63.26-.59-94.88 0-1.65-.77-3.4-.46-4.96 6.21-31.77.14-62.83-5.04-94.01-1.08-6.49-.37-13.27-.59-19.92-.71-20.92-9.35-38.65-22.62-54.26-1.58-1.84-6.55-2.8-8.6-1.69-2.04 1.11-3.59 5.46-3.31 8.19 3.29 32.26 7.74 64.44 10.2 96.77 1.31 17.37.54 35.1-1.37 52.45-4.03 36.58-1.94 73.19-1.35 109.74.27 16.11-2.23 31.35-4.81 46.92-2.3 13.94-3.86 28.03-5.13 42.1-.43 4.82.09 10.22 1.92 14.61 1.39 3.36 5.32 7.37 8.53 7.77 3.07.39 8.14-2.71 9.78-5.69 4.77-8.64 8.25-17.98 12.24-27.05zm-172.37-13.59c11.98 2.02 17.37-3.61 21.4-9.9 4.46-6.97 8.15-14.61 11.04-22.38 15.68-42.18 32.55-84.02 45.99-126.92 11.16-35.67 17.99-72.69 27-109.03 4.64-18.67 6.33-37.66 7.11-56.76.2-4.92.02-9.96-.93-14.77-1-5.02-3.59-9.56-9.56-10.01-5.88-.44-9.25 3.85-11.43 8.19-2.17 4.32-2.99 9.39-4.03 14.21-4.91 22.77-8.91 45.77-14.67 68.31-13.4 52.43-25.73 105.14-46.99 155.31-9.38 22.15-15.65 45.64-22.85 68.67-1.7 5.42-1.75 11.43-2.08 17.21-.32 5.64-.04 11.33 0 17.87zm-158.29-88.05c10 3.96 17.65 2.63 24.26-3.32 8.05-7.23 16.52-14.26 23.3-22.58 22.56-27.76 44.77-55.72 63.89-86.12 19.02-30.24 39.68-59.47 59.77-89.04 14.04-20.64 28.53-40.98 42.41-61.74 3.08-4.6 5.43-10.22 6.26-15.66.76-4.99-1.88-10.39-7.5-11.47-3.65-.71-9.11-.33-11.44 1.95-9.5 9.25-19.41 18.54-26.79 29.42-31.3 46.09-65.31 90.36-93.63 138.48-6.31 10.71-13.43 21.2-21.57 30.57-21.42 24.63-37.1 53.15-55.31 79.92-1.71 2.49-2.25 5.79-3.65 9.59zm-154.47-133.2c9.42-1.41 15.66-3.37 21.81-3.06 11.7.6 21.04-2.81 28.54-11.9 2.59-3.15 5.77-6.52 9.42-7.97 30.57-12.1 56.79-31.6 83.1-50.47 31.85-22.86 66-41.79 99.15-62.44 15.5-9.67 30.29-20.52 44.98-31.41 8.63-6.39 16.26-14.03 18.58-24.87-5.37-7.26-11.64-3.69-16.28-1.84-11.58 4.6-22.9 10.04-33.82 16.07-50.35 27.75-99.9 56.83-147.56 89.09-22.05 14.94-44.73 28.98-66.97 43.65-4.78 3.17-9.51 6.83-13.26 11.12-8.65 9.95-16.69 20.42-27.69 34.03zm414.82-199.63c19.81-18.16 28.63-42.2 33.07-67.47 3.06-17.37 8.88-33.61 13.97-50.22 3.16-10.3 6.48-20.59 8.99-31.06 1.57-6.6-3.52-11.15-10.28-10.26-7.7 1-13.83 3.63-18.25 11.01-14.23 23.83-22.62 49.8-28.1 76.66-4.3 21-10.8 41.9-7.67 63.87.67 4.72 3.22 7.29 8.27 7.47zm44.56 1.98c9.48-2.91 18.89-6.08 28.47-8.67 43.5-11.73 76.42-39.28 106.68-70.91 3.92-4.1 4.31-8.68 2.44-13.8-2.3-6.28-7.19-8.95-13.39-9.55-6.23-.59-11.73 1.74-15.66 6.35-18.68 21.97-43.93 35.41-66.75 52.02-5.31 3.87-10.22 8.55-14.41 13.61-4.73 5.7-7.64 13.02-12.8 18.19-4.39 4.42-10.83 6.79-16.38 10.06.61.91 1.2 1.8 1.8 2.7zM4529.99 4794.71c-16.55-3.83-31.96-7.66-47.49-10.92-37.62-7.91-75.29-15.58-112.96-23.25-22.05-4.49-44.24-8.36-66.19-13.28-52.28-11.73-103.29-27.47-151.71-50.75-16.06-7.72-31.09-16.86-41.94-31.67-6.25-8.53-7.4-16.9-1.8-26.1 1.44-2.35 1.63-5.63 3.36-7.67 21.13-25 39.88-52.21 68.63-69.89 19.16-11.78 37.31-25.17 56.34-37.18 12.67-8.02 25.49-16.39 39.33-21.9 23.7-9.42 44.87-23.09 66.8-35.6 15.46-8.81 31.94-15.84 47.38-24.71 14.59-8.39 28.42-18.12 42.55-27.31 8.74-5.68 11.86-14.11 11.47-24.16-.18-4.7-.58-9.39-.53-14.07.28-27.21.36-54.26 4.99-81.36 6.32-36.93 10.73-74.23 14.97-111.49 6.9-60.67 16.59-120.84 31.38-180.05 5.66-22.68 14.88-44.48 22.5-66.67 2.9-8.47 7.18-15.2 17.55-15.52 2.62-.08 5.56-1.49 7.75-3.1 21.81-15.96 42.16-9.96 62.22 3.69 16.18 11.02 32.96 21.25 48.68 32.89 12 8.89 23.68 18.57 33.91 29.41 17.93 19.01 36.03 37.84 54.2 56.58 21.89 22.59 41.17 48.19 54.75 77.61 16.58 35.89 39.43 68.25 61.84 100.7 3.57 5.17 9.12 8.99 14.62 14.26 19.71-10.32 38.74-20.06 57.57-30.19 17.32-9.33 34.35-19.15 51.63-28.56 15.61-8.51 31.35-16.76 47.05-25.1 47.14-25.05 93.56-51.57 147.8-59.33 27.8-3.97 54.95-11.64 83.65-8.52 11.83 1.29 21.55 5.8 31.43 11.12 7.09 3.8 12.15 10.14 12.88 17.61 1.62 16.62 3.71 33.13-3.2 49.79-18.28 44.09-35.73 88.54-52.78 133.12-8.03 21.02-14.31 42.71-21.52 64.06-11.99 35.5-23.83 71.06-36.26 106.41-4.34 12.3-10.25 24.05-15.57 36.33 2.48 3.58 4.08 7.18 6.76 9.53 37.65 32.86 64.82 75.16 99.96 110.41 23.7 23.78 42.57 52.3 65.16 77.31 16.24 17.99 30.72 37.65 49.67 53.29 12.98 10.72 16.08 26.84 19.66 42.96-12.02 23.57-31.24 35.48-57.66 37.78-37.13 3.22-74.12 8.4-111.29 10.91-21.42 1.46-43.08-1.14-64.62-1.15-36.49-.01-72.96.73-109.45.83-34.67.11-69.36.14-104.03-.45-16.79-.29-33.56-2.1-50.34-3.16-11.98-.76-18.31 3.08-19.23 15.08-.99 12.82-6.04 23.28-12.77 33.57-3.59 5.49-7.6 11.05-9.61 17.17-8.94 27.21-28 48.69-40.65 73.76-8.45 16.73-17.79 33.03-25.59 50.05-17.7 38.58-40.48 74.03-65.22 108.31-2.15 3-4.99 5.67-7.93 7.9-35.52 26.92-56.2 20.98-78.46-10.23-21.73-30.47-42.58-61.97-56.49-97.11-5.5-13.92-8.74-28.72-13.31-43.02-10.57-33.01-21.38-65.95-31.97-98.96-1.73-5.35-3.82-10.82-4.16-16.32-1.75-28.7-13.35-54.48-23.71-83.69zm716.12-638.59c6.43-6.27 9.21-13.6 6.66-23.43-14.32-5.03-27.7.69-40.66 4.77-25.83 8.14-50.53 19.83-77.74 23.68-6.35.9-12.33 4.4-18.46 6.76-12.26 4.72-24.27 10.3-36.83 14.02-30.74 9.13-59.4 23.11-88.12 36.85-25.34 12.12-50.05 25.56-75.23 38.05-9.16 4.53-17.81 9.22-26.27 15.42-9.79 7.15-21 15.53-36.59 14.16-2.95-4.93-6.13-10.5-9.54-15.94-4.46-7.11-8.91-14.24-13.69-21.11-6.94-9.99-14.83-19.36-21.16-29.71-18.12-29.65-36.31-59.12-61.51-83.63-4.46-4.33-7.9-10.84-9.27-16.91-2.25-9.91-8.49-16.39-14.87-23.34-24.1-26.27-47.97-52.72-71.91-79.12-14.52-16.02-30.31-30.3-49.54-40.76-9.76-5.31-18.69-12.27-27.61-19.01-9.12-6.89-12.98-7.56-22.76-2.04-10.14 5.72-18.66 12.16-18.72 25.73-.04 7.38-2.76 14.71-4.05 22.09-11.49 65.66-23.71 131.18-28.34 197.86-2.2 31.84-6.81 63.49-10.31 95.23-1.74 15.86-4.01 31.7-4.97 47.61-.84 13.91-1.94 28.17.19 41.79 3.63 23.16 2.96 44.7-13.31 65.33-9.64-2.59-18.67.51-25.92 9.08-2.98 3.51-6.75 6.63-10.74 8.94-29.17 16.76-58.4 33.42-87.78 49.81-26.88 15.01-54.42 28.88-80.82 44.66-24.85 14.83-49.1 30.77-72.63 47.6-14.15 10.13-26.82 22.59-33.59 42.02 32.16 11.33 59.85 29.85 93.07 34.45 3.66.51 7.1 2.45 10.69 3.53 28.7 8.6 57.79 14.96 87.39 20.13 45.14 7.87 89.51 20.24 134.62 28.3 29.22 5.21 51.9 19.35 73.42 38.56 14.4 12.86 21.24 27.88 23.66 46.11 1.74 13.04 3.47 26.11 6.05 38.98 7.19 35.91 15.26 71.3 32.1 104.6 16.96 33.53 35.43 66.11 53.79 98.8 4.57 8.15 11.06 15.22 15.82 23.27 6.59 11.13 20.59 10.9 28.41 1.23 5.87-7.26 11.18-15.06 16.14-22.98 17.4-27.86 34.01-56.24 51.92-83.76 29.69-45.62 61.85-89.66 85.49-139.02 5.66-11.84 12.14-23.33 18.87-34.61 4.72-7.92 10.5-15.19 15.24-21.97 36.84 0 71.58-.05 106.34.07 4.66.02 9.54.24 13.96 1.59 31.18 9.48 63.24 7.5 95.13 7.63 15.93.06 31.79-.65 47.14 5.66 5.86 2.4 12.94 2.46 19.46 2.52 42.28.42 84.57.55 126.86.78 16 .09 30.62-4.31 46.52-13.36-19-23.79-28.79-51.64-51.49-71.45-12.56-10.98-22.89-24.89-32.71-38.57-20.85-29.11-44.7-55.6-68.66-82.05-3.78-4.18-7.09-9.38-11.79-12-19.18-10.71-34.12-26.46-49.94-41.07-9.55-8.82-17.69-19.28-25.93-29.43-6.84-8.41-5.32-17.2.07-26.11 7.24-12.01 14.38-24.16 20.79-36.63 17.57-34.23 34.83-68.63 52-103.07 5.86-11.75 11.59-23.59 16.5-35.74 12.31-30.47 24.24-61.09 36.03-91.77 3.69-9.61 6.46-19.57 9.51-29.42 2.73-8.86 1.87-16.48-6.9-22.05-7.32-4.64-1.77-12.17-3.23-18.2l-.25.59z"/><path class="fil0" d="M4258.97 4629.14c6.86-16.46 19.99-21.71 35.9-22.02 14.79-.32 29.69.94 44.36-.38 10.93-1 22.06-3.84 32.24-7.98 14.15-5.72 27.04-4.32 40.46 1.62 7.57 3.34 15.71 5.37 23.55 7.99 3.94 6.14 2.04 10.88-4.06 13.51-19.63 8.47-39.48 16.44-59.12 24.89-21.29 9.17-43.82 9.94-66.03 7.39-18.07-2.06-36.93-5.81-47.3-25.02zm312.69-553.97c6.84-.96 13.94-4.07 19.22-2.15 6.54 2.36 13.36 7.84 16.86 13.84 6.07 10.42 10.48 22.01 14.11 33.57 4.75 15.15 7.18 31.04 12.25 46.05 5.7 16.87 6.23 32.81-2.49 48.81-11.61 2.52-20.23-1.61-24.27-12.81-7.53-20.9-21-39.31-23.33-62.58-1.27-12.64-6.89-25.25-12.5-36.94-4.12-8.6-3.29-16.11.15-27.79zm97.53 904.46c33.18-92.12 31.93-88.6 47.98-101.58 7.89 3.29 5.13 11 7.14 16.81 10.11 29.24 2.05 57.31-6.05 85-2.49 8.48-9.29 16.13-15.45 22.98-8.09 8.99-16.35 7.55-22.65-2.67-.97-1.59-1.64-3.36-2.52-5-2.65-4.93-5.34-9.83-8.45-15.54zm503.71-256.88c-14.76 0-26.08.68-37.29-.15-20.57-1.51-35.14-11.8-42.11-31.72-2-5.72-2.25-11.76 3.15-15.25 3.43-2.2 8.65-3.18 12.74-2.56 5.44.84 10.59 3.68 15.79 5.83 16.52 6.81 32.99 12 51.5 12.11 12.7.08 25.55 5.3 37.88 9.54 3.01 1.05 5.6 7.22 5.89 11.21.36 4.92-3.65 8.83-8.86 9.17-14.04.94-28.11 1.35-38.69 1.82zm-482.19-408.74c4.36 4.34 10.95 8.04 13 13.47 6.56 17.32 12.22 35.07 16.47 53.07 1.25 5.25-3.31 11.88-5 17.22-9.76 1.24-17.88 2.32-26.01 3.25-8.17.95-14.5-2.6-19.56-8.61-9.28-11-13.74-24.01-15.91-38.6 9.71-15.05 15.79-33.4 37.01-39.8zm-64.4 303.08c-10.02 22.34-28.28 28.79-50.6 28.03-8.4-.29-16.84-.37-25.22.21-11.68.79-19.55-5.46-26.12-13.68-9.26-11.54-3.42-27.56 11.59-29.53 13.81-1.81 27.98-1.64 41.95-1.13 12.09.42 24.13 2.5 36.17 3.95 7.46.89 11.69 5.05 12.23 12.15zm282.1-110.12c-16.64-1.47-37.17 6.61-48.21-17.4 1.13-2.34 2.03-6.15 4.35-8.65 12.01-12.96 24.98-25.07 36.4-38.52 7.32-8.64 17.33-10.53 26.68-14.06 6.74-2.55 15.02 4.2 15.85 11.52 1.45 12.74-1.97 23.52-10.59 33.46-8.36 9.61-15.13 20.61-24.48 33.65zm267.67-265.93c-24.83 34.74-48.37 64.21-82.59 82.86-12.52-13.12-15.26-23.7-7.59-32.51 14.14-16.21 28.13-32.63 46.35-44.79 12.45-8.33 25.29-10.32 43.83-5.56zm-455.54 564.35c-2.56-15.34-1.76-31.11-.11-46.91 1.44-13.76 8.78-24.55 17.35-34.52 6.05-7.05 14.77-6.69 23.9-6.37 6.09 8.94 7.58 19.12 5.78 29.35-2.27 12.86-6.42 25.37-8.88 38.2-2.13 11.08-13.25 12.37-19.31 19.19-4.63 5.21-11.64 4.95-18.73 1.06zm342.29-455.08c2.14 19.57-9.24 30.7-22.12 40.14-10.49 7.7-19.84 4.87-27.96-6.38-1.62-2.24-3.34-4.42-4.95-6.67-9.39-13.1-5.81-25.38 9.32-29.98 14.56-4.42 29.25-5.26 45.71 2.89zm-169.05 228.29c12.19 8.61 25.13 17.42 37.62 26.82 2.68 2.03 3.75 6.17 6.57 11.12-21.57 9.34-42.12 13.68-63.92 2.93-12.28-26.8-11.46-28.61 19.73-40.87zm-137.85-89.09c5.3-8.74 14.1-10.71 23.32-11.47 9.15 5.13 13.95 12.08 14.21 22.6.41 16.84-1.72 25.36-10.61 35.17-19.12-9.37-30.02-23.5-26.92-46.3zm285.91 191.22c-14.99-.33-31.02-21.82-26.72-35.82 1.98-6.41 10.42-10.61 20.98-10.7 6.43-.07 10.79 2.95 12.75 8.81 2.03 6.09 3 12.55 5.11 18.61 4.73 13.54 1.18 19.37-12.12 19.1zm204.52-525.2c-7.35 10.54-14.38 21.33-22.16 31.53-5.49 7.19-13.66 8.43-19.44 4.12-9.02-6.69-11.42-22.72-3.07-29.35 8.59-6.8 18.39-12.5 28.42-16.96 10.04-4.47 10.76 7.23 15.93 11.34.07-.09.32-.68.32-.68zm-495.04 477.95c-3.16 17.15-18.05 18.79-27.65 25.81-11.6-2.86-20.02-7.62-22.64-19.36-1.39-6.2 1.99-15.3 7.62-15.63 11.03-.66 22.23-.64 33.17.69 3.62.44 6.64 5.79 9.5 8.49zm549.89 122.04c-7.94 0-12.35.73-16.37-.22-3.56-.84-6.93-4.26-3.84-8.05 1.87-2.27 6.97-4.38 9.11-3.38 3.56 1.68 5.91 5.92 11.1 11.65zm-3976.29-21.06c-.87-2.23-.5-5.08-1.67-7.07-14.28-24.29-26.16-50.19-48.25-69.18-14.71-12.63-28.31-26.55-42.88-39.37-9.71-8.56-19.48-17.45-30.61-23.99-19.05-11.2-35.21-25.74-52.23-39.38-12-9.61-25.17-17.8-37.13-27.46-11.32-9.14-21.74-19.32-32.53-29.07-6.66-6.04-8-13.72-6.03-22.32.91-4.04 2.02-8.04 2.75-12.09 4.16-23.48 8.5-46.83 8.89-70.8.5-32.67 2.73-65.41 5.1-98.1 3.87-53.2 5.22-106.36 1.99-159.34-1.22-20.3-5.69-40.3-8.7-60.42-1.14-7.69-3.77-14.05-12.72-15.66-2.28-.42-4.58-2-6.23-3.68-16.35-16.59-35.01-14.07-54.64-4.89-15.84 7.39-32.07 14.05-47.62 22.04-11.88 6.1-23.59 12.95-34.23 20.95-18.66 14.08-37.43 27.96-56.26 41.77-22.68 16.64-43.59 36.21-60.16 59.83-20.23 28.79-45.33 53.72-70.07 78.81-3.94 3.99-9.37 6.56-15.01 10.4-15.45-11.47-30.38-22.33-45.1-33.52-13.52-10.29-26.73-20.97-40.19-31.33-12.19-9.36-24.51-18.53-36.79-27.75-36.88-27.73-72.88-56.62-118.74-70.36-23.49-7.03-45.83-17.17-71.26-18.2-10.47-.42-19.65 2.2-29.1 5.5-6.78 2.36-12.2 7.18-14.05 13.52-4.11 14.12-8.6 28.09-5.31 43.36 8.72 40.39 16.66 80.99 24.22 121.65 3.55 19.16 5.49 38.7 8.29 58.04 4.63 32.17 9.15 64.38 14.2 96.48 1.76 11.17 5 22.07 7.62 33.35-2.75 2.76-4.71 5.66-7.41 7.34-38.05 23.45-68.51 56.4-104.77 82.25-24.44 17.43-45.47 39.57-69.14 58.21-17.03 13.4-32.79 28.48-51.79 39.5-13.02 7.56-18.33 21.07-24.07 34.5 6.61 21.88 21.37 34.66 43.94 40.08 31.73 7.59 63.02 16.85 94.9 23.84 18.35 4.04 37.59 4.61 56.3 7.4 31.69 4.72 63.25 10.1 94.92 14.93 30.09 4.6 60.22 9.12 90.43 13.11 14.63 1.93 29.48 2.55 44.22 3.81 10.53.9 15.41 5.04 14.25 15.51-1.22 11.18 1.46 20.86 5.65 30.61 2.22 5.2 4.79 10.52 5.55 16.04 3.35 24.63 16.4 45.63 23.32 68.9 4.62 15.51 10.09 30.79 14.1 46.47 9.1 35.59 23.13 69.11 39.05 101.89 1.38 2.87 3.4 5.54 5.61 7.84 26.47 27.83 45.39 25.38 69.8 1.37 23.83-23.47 47.04-47.92 64.83-76.41 7.03-11.29 12.25-23.65 18.54-35.39 14.55-27.09 29.29-54.1 43.86-81.19 2.36-4.39 5.07-8.83 6.26-13.54 6.17-24.51 20.44-45.24 34.19-69.1 15-1.14 29-2.44 43.01-3.24 33.96-1.94 67.93-3.66 101.89-5.39 19.88-1.01 39.78-1.46 59.63-2.85 47.33-3.33 94.17-10.29 140.02-24.08 15.19-4.56 29.73-10.5 41.56-21.86 6.81-6.55 9.18-13.62 5.8-22.27zm-133.94 22.79c-3.26-.05-6.56 1.19-9.85 1.65-26.32 3.7-52.63 5.41-79.17 6.02-40.5.92-81.03 5.84-121.52 6.92-26.22.71-48.21 9.96-70.02 23.73-14.6 9.23-22.98 21.28-28.05 36.7-3.62 11.01-7.25 22.05-11.58 32.83-12.09 30.04-24.84 59.5-44.87 86.04-20.18 26.71-41.51 52.4-62.77 78.22-5.3 6.42-12.07 11.69-17.53 18.01-7.52 8.75-19.64 6.73-24.87-2.63-3.92-7.02-7.27-14.44-10.28-21.91-10.6-26.28-20.4-52.92-31.48-78.97-18.37-43.2-39.16-85.36-51.66-130.99-3-10.94-6.77-21.71-10.77-32.3-2.81-7.45-6.65-14.47-9.67-20.93-31.99-4.78-62.16-9.33-92.37-13.75-4.04-.58-8.32-1.03-12.37-.44-28.62 4.15-56.15-1.74-83.87-5.76-13.84-2.02-27.5-4.68-41.86-1.25-5.49 1.32-11.64.44-17.31-.35-36.79-5.12-73.54-10.49-110.31-15.79-13.9-1.99-25.88-7.7-38.22-17.56 20.36-18.05 33.39-40.8 56.32-54.94 12.69-7.83 23.92-18.49 34.69-29.02 22.83-22.39 47.83-42.15 72.94-61.84 3.97-3.12 7.68-7.17 12.2-8.82 18.39-6.74 33.93-18.39 50.04-28.94 9.73-6.36 18.49-14.32 27.3-22.01 7.3-6.36 7.42-14.14 4.19-22.53-4.35-11.3-8.57-22.69-12.12-34.28-9.69-31.81-19.09-63.7-28.41-95.65-3.18-10.88-6.22-21.85-8.53-32.96-5.74-27.87-11.13-55.84-16.38-83.82-1.64-8.76-2.43-17.7-3.47-26.6-.93-7.99 1.04-14.47 9.56-18.12 7.01-3 3.64-10.05 5.7-15.06-4.38-6.14-5.54-12.73-1.79-20.75 13.27-2.49 23.94 4.19 34.53 9.39 21.12 10.37 40.67 23.66 63.68 30.52 5.36 1.59 9.99 5.4 14.92 8.23 9.9 5.65 19.41 12.02 29.72 16.88 25.22 11.86 47.84 27.62 70.56 43.21 20.03 13.73 39.29 28.54 59.14 42.57 7.23 5.1 13.98 10.27 20.33 16.71 7.32 7.44 15.7 16.13 29.47 16.96 3.35-3.86 7.02-8.25 10.87-12.51 5.03-5.54 10.05-11.11 15.32-16.42 7.64-7.72 16.03-14.77 23.2-22.88 20.55-23.21 41.14-46.28 67.02-64.14 4.56-3.15 8.61-8.31 10.79-13.38 3.55-8.25 10.04-13.03 16.71-18.19 25.19-19.52 50.22-39.24 75.3-58.89 15.22-11.93 31.25-22.21 49.65-28.73 9.33-3.31 18.22-8.16 27.06-12.81 9.04-4.75 12.51-4.83 20.1 1.2 7.88 6.25 14.23 12.9 12.08 24.62-1.16 6.36.01 13.04-.07 19.58-.69 58.1-.71 116.19-7.54 174.3-3.25 27.75-4.39 55.65-6.51 83.48-1.07 13.9-1.67 27.85-3.42 41.7-1.52 12.1-2.89 24.54-6.95 36.01-6.91 19.51-9.83 38.17.94 58.07 8.79-.98 16.14 2.86 21.05 11.2 2 3.4 4.78 6.59 7.86 9.1 22.63 18.24 45.31 36.41 68.16 54.36 20.9 16.43 42.56 31.97 62.93 49 19.18 16.01 37.65 32.91 55.35 50.48 10.64 10.57 19.62 22.96 22.33 40.6-29.76 5.59-56.82 17.96-86.42 17.63z"/><path class="fil0" d="M414.68 4169.93c-.04.07-.04.16-.07.22.07.11.12.22.19.32l-.12-.54zm753 512.97c-12.8-2.19-25.94-3.03-38.47-6.08-9.32-2.29-18.52-6.17-26.69-11.07-11.37-6.77-22.78-7.23-35.41-3.85-7.12 1.9-14.52 2.59-21.76 3.83-4.41 4.78-3.53 9.12 1.34 12.18 15.67 9.85 31.61 19.31 47.29 29.14 17.01 10.67 36.45 14.26 56.16 14.94 16.03.57 33.02-.21 45.13-15.43-3.27-15.09-13.83-21.32-27.59-23.66zm-170.32-499.02c-6.05 1.18-12.87 5.02-16.89 9.74-6.95 8.19-12.67 17.61-17.72 27.11-6.58 12.45-11.26 25.86-18.11 38.14-7.69 13.79-10.73 27.47-5.76 42.4 9.67 3.68 17.83 1.23 23.15-7.89 9.94-17.05 24.64-31.18 30.44-50.94 3.16-10.74 10.07-20.88 16.84-30.23 4.99-6.9 5.48-13.47 4.4-23.98-5.79-1.73-11.44-5.33-16.35-4.35zm-249.39 691.43c-13.53 23.9-11.1 49.15-8.56 74.08.78 7.64 5.45 15.13 9.68 21.83 5.57 8.8 12.98 8.62 20.11.64 1.11-1.25 1.97-2.69 3-3.98 3.1-3.91 6.25-7.79 9.88-12.31-13.86-83.76-13.36-80.55-25.18-93.84-7.39 1.82-6.24 8.83-8.93 13.58zm-298.42-241.27c-4.85.02-9.78 1.8-14.66 2.98-15.44 3.72-30.6 6.06-46.69 3.76-11.04-1.58-23.05 1.24-34.45 3.31-2.78.5-6.04 5.5-6.93 8.9-1.1 4.18 1.74 8.09 6.21 9.07 12.04 2.62 24.2 4.8 33.3 6.58 12.82 1.91 22.54 3.97 32.41 4.71 18.11 1.37 32.44-5.61 41.73-21.89 2.65-4.66 3.86-9.85-.27-13.55-2.62-2.35-6.99-3.87-10.65-3.87zm421.95-255.31c-4.47 3.18-10.8 5.53-13.47 9.94-8.51 14.08-16.31 28.66-22.93 43.62-1.93 4.38.95 10.68 1.55 15.51 8.28 2.33 15.15 4.32 22.07 6.18 6.93 1.88 13-.37 18.38-4.89 9.85-8.29 15.84-18.93 20.09-31.23-5.99-14.24-8.29-30.84-25.69-39.13zm87.6 268.56c-11.7-3.35-24.03-5.04-36.25-6.42-10.56-1.2-21.35-.97-32.05-1.29-6.62-.2-10.97 2.85-12.59 8.89 5.08 20.58 19.89 28.51 39.39 30.75 7.33.84 14.68 1.87 21.87 3.45 10.01 2.21 17.86-2.16 24.92-8.41 9.9-8.74 7.42-23.32-5.29-26.97zm-291.03-185.12c-4.96-8.41-13.35-11.33-20.9-15.59-5.44-3.08-13.72 1.68-15.63 7.88-3.33 10.79-2.12 20.54 3.76 30.22 5.7 9.39 9.78 19.75 15.79 32.21 14.7.88 31.22 10.52 44.71-8.76-.61-2.16-.78-5.56-2.38-8.01-8.34-12.74-17.62-24.87-25.35-37.95zm-136.11-154.24c-9.64-15.82-19.13-31.79-32.98-44.65-9.46-8.79-20.28-12.19-37.16-10.48 15.92 33.18 31.59 61.65 58.26 82.18 13.02-9.69 17.12-18.46 11.88-27.05zm217.72 487.35c3.17 5.1 9.31 5.78 16.09 3.36 4.73-12.9 6.59-26.61 7.73-40.44.98-12.06-3.64-22.32-9.47-32.03-4.11-6.86-11.74-7.69-19.71-8.59-6.76 6.91-9.71 15.51-9.79 24.56-.13 11.37 1.44 22.7 1.5 34.09.06 9.83 9.5 12.39 13.65 19.05zM582.6 4365.17c-11.93-5.7-24.54-8.33-40.16-3.43-5.04 16.59 3.03 27.67 12.68 37.48 7.86 8.01 16.44 6.77 25.32-1.87 1.77-1.71 3.62-3.38 5.38-5.11 10.28-10.09 9.18-21.13-3.22-27.07zm69.56 215.39c-11.99 5.84-24.65 11.76-37.03 18.24-2.65 1.41-4.26 4.85-7.51 8.74 17.21 10.86 34.36 17.26 55.04 10.82 15.02-21.51 14.61-23.18-10.5-37.8zm134.2-58.93c-3.19-8.24-10.51-11.08-18.4-12.93-8.77 3.24-14.08 8.6-16 17.65-3.1 14.48-2.63 22.09 3.5 31.71 18.12-5.61 29.89-16.37 30.9-36.43zm-266.83 88.41c-5.58-.89-9.86 1.15-12.51 5.94-2.75 4.99-4.64 10.43-7.47 15.39-6.3 11.07-4.16 16.56 7.44 18.04 13.06 1.66 30.49-14.78 29.01-27.41-.67-5.8-7.31-10.5-16.47-11.96zm-74.51-403.96c8.93-4.61 13.6-18.12 7.43-24.91-6.36-6.98-13.95-13.17-21.93-18.33-7.95-5.12-10.49 4.7-15.58 7.65 4.56 9.86 8.86 19.87 13.87 29.51 3.59 6.91 10.48 9.04 16.21 6.08zm-30.08-35.59c-.09-.19-.17-.37-.26-.56 0 0 .12.54.17.62.03-.02.05-.04.09-.06zm390.58 473.52c-9.47-2-19.2-3.45-28.92-3.71-3.21-.1-6.71 4.12-9.63 6.07-.03 15.21 12.63 18.56 19.82 25.85 10.55-.96 18.63-3.96 22.82-13.76 2.2-5.14.74-13.44-4.09-14.45zm-524.42 27.62c-3.36.99-6.1 4.34-11.53 8.61 6.89 1.03 10.62 2.23 14.25 1.95 3.23-.29 6.71-2.78 4.64-6.46-1.25-2.2-5.34-4.67-7.36-4.1zm5020.97-938.23c-10.8 1.6-21.67 5.69-32.42-1.59-2.4-1.63-7.37-.67-10.63.52-8.75 3.18-17.35 6.81-25.71 10.88-6.73 3.27-34.29 41.73-35.66 48.72-.18.92-.43 1.84-.47 2.77-.54 19.39 2.95 37.03 19.36 50.09 10.62 8.45 22.03 13.92 35.72 14.01 7.46.04 14.95.01 22.41.01 0-.33.01-.66.01-.98 5.6.34 11.2.72 16.81.99 30.71 1.49 51.81-12.52 63.86-40.37 2.88-6.65 7.03-14.34 5.98-20.8-2.21-13.68-6.05-27.53-11.84-40.11-9.36-20.45-25.22-27.44-47.42-24.14zM4368.01 689.51c18.79-20.75 24.55-64.87 11.32-90.04-2.05-3.92-5.62-8.63-9.45-9.76-20.24-5.97-39.5-15.99-62.33-9.88-20.06 5.37-37.76 15.58-56.64 23.32-3.92 1.61-7.05 6.02-9.71 9.73-14.24 20.03-12.53 55.39 3.82 73.46 3.61 3.98 8.97 6.41 13.61 9.42 5.44 3.51 12.06 5.9 16.24 10.54 7.8 8.63 17.33 10.32 25.15 10.22 27.26 1.13 51.7-9.02 67.99-27.01zM4259.15 5118.5c-8.98-2.98-16.97.56-22.2 8.22-7.41 10.82-14.53 21.88-20.86 33.34-2.62 4.71-2.88 10.72-3.54 13.41 3.02 18.41 5.41 34.04 8.3 49.58.46 2.49 2.7 4.97 4.71 6.8 16.21 14.89 41.9 23.89 68.69 4.95 10.42-7.36 16.88-17.39 23.74-27.43 4.44-6.5 5.4-13.31 4.17-21.33-6.05-39.6-30.95-56.87-63.01-67.54zM6024.1 2662.15c-6.38-2.49-14.01-7.8-21.69-7.86-9.69-.08-10.76-12.08-17.45-11.22-9.08 1.16-16.31-.21-23.9-6.5-9.15 4.85-13.64 12.11-23.38 13.03-17.14 1.63-23.17 8.28-23.28 24.41-.1 12.98 1.24 26.19 3.88 38.88 1.17 5.6 6.16 11.88 11.19 14.9 11.79 7.1 25.85 10.5 34.13 23.06 1.22 1.82 4.99 2.52 7.65 2.74 23.33 1.87 57.61-18.81 57.69-45.41.06-15.04-1.44-29.22-4.84-46.03zM4190.71 1082.06c-7.44 2.05-16.54 2.56-23.12 6.92-6.42 4.25-10.08 12.54-15.26 18.81-1.74 2.09-4.44 3.37-6.64 5.11-20.74 16.66-19.28 53.49 7.32 68.73 5.21 2.99 54.56 10.32 59.33 7.4 7.81-4.78 15.42-10.27 21.96-16.64 4.51-4.38 7.09-10.75 11.29-17.42-4.63-35.8-23.96-58.79-54.88-72.91zm917.05-224.98c-6.68 10.9-23.58 12.01-25.76 29.56-1.6 12.84-16.14 23.6-6.29 39.07 2.69 1.78 5.57 4.31 8.91 5.76 5.83 2.53 12.36 6.96 17.83 6.03 13.39-2.26 27.12-5.55 39.24-11.47 8.87-4.33 10.93-23.96 4.96-33.18-9.56-14.81-18.6-30.59-38.89-35.77zm693.52 1524.64c-1.96 4.98-3.61 9.14-5.24 13.32-4.23 10.89-2.48 22.14 7.19 27.31 11.72 6.29 11.92 17.94 17.69 28.69l33.89-2.23c13.98-15.1 21.18-30.25 20.55-45.73-11.25-7.61-20.15-13.63-30.45-20.6-13.44 10.51-28.39-1.25-43.63-.76zM3980.44 5094.76c-.5-4.17-2.75-9.3-5.94-11.78-11.69-9.07-27.96-8.03-38.19 1.95-4.65 4.53-8.69 9.76-12.48 15.06-1.5 2.08-2.62 5.38-2.17 7.81 2.22 12.15 7.29 23.21 17.6 30.4 9.01 6.29 19.04 11.12 28.56 16.57 11.14-9.16 14.98-20.72 13.33-34.84-.97-8.31.28-16.86-.71-25.17zM795.63 3743.21c-8.35-4.07-16.97-7.7-25.7-10.88-3.28-1.19-8.24-2.15-10.63-.52-10.75 7.28-21.62 3.19-32.44 1.59-22.18-3.3-38.05 3.69-47.42 24.14-5.77 12.58-9.61 26.43-11.83 40.11-1.05 6.46 3.11 14.15 5.99 20.8 12.05 27.85 33.14 41.86 63.86 40.37 5.61-.27 11.21-.65 16.8-.99 0 .32.01.65.01.98 7.47 0 14.95.03 22.42-.01 13.68-.09 25.1-5.56 35.71-14.01 16.41-13.06 19.9-30.7 19.36-50.09-.04-.93-.29-1.85-.47-2.77-1.37-6.99-28.92-45.45-35.66-48.72zM665.74 643.31c-18.87-7.74-36.57-17.95-56.64-23.32-22.83-6.1-42.08 3.91-62.33 9.89-3.82 1.13-7.39 5.84-9.45 9.75-13.22 25.18-7.46 69.3 11.32 90.04 16.29 17.99 40.73 28.15 67.99 27.02 7.82.09 17.36-1.59 25.15-10.23 4.18-4.63 10.8-7.02 16.24-10.54 4.65-3 10.01-5.43 13.62-9.41 16.34-18.08 18.05-53.43 3.82-73.46-2.66-3.72-5.8-8.12-9.72-9.74zm1126.25 4483.41c-5.23-7.66-13.22-11.2-22.19-8.22-32.08 10.67-56.96 27.94-63.01 67.54-1.23 8.02-.28 14.83 4.16 21.33 6.86 10.04 13.33 20.07 23.73 27.43 26.8 18.94 52.49 9.94 68.71-4.95 2-1.83 4.25-4.31 4.71-6.8 2.88-15.54 5.28-31.17 8.3-49.58-.67-2.69-.93-8.7-3.54-13.41-6.34-11.46-13.46-22.52-20.87-33.34zM91.27 2649.6c-9.74-.92-14.23-8.18-23.39-13.03-7.59 6.29-14.81 7.66-23.89 6.5-6.7-.86-7.76 11.14-17.46 11.22-7.68.06-15.31 5.37-21.68 7.86-3.4 16.81-4.9 30.99-4.85 46.03.09 26.6 34.37 47.28 57.69 45.41 2.66-.22 6.45-.92 7.66-2.74 8.27-12.56 22.33-15.96 34.12-23.06 5.04-3.02 10.02-9.3 11.2-14.9 2.64-12.69 3.97-25.9 3.88-38.88-.11-16.13-6.14-22.78-23.28-24.41zM2051.46 628.42c26.61-15.24 28.06-52.06 7.31-68.72-2.18-1.75-4.88-3.03-6.62-5.12-5.17-6.27-8.85-14.56-15.27-18.81-6.56-4.36-15.68-4.87-23.11-6.92-30.93 14.11-50.25 37.12-54.89 72.91 4.2 6.68 6.79 13.04 11.29 17.42 6.55 6.36 14.15 11.86 21.96 16.64 4.77 2.92 54.13-4.42 59.33-7.4zm-970.51 157.2c-20.29 5.18-29.33 20.96-38.9 35.77-5.97 9.21-3.9 28.84 4.97 33.17 12.12 5.92 25.84 9.22 39.23 11.48 5.47.94 12.01-3.5 17.83-6.03 3.34-1.45 6.23-3.98 8.92-5.77 9.85-15.46-4.69-26.22-6.3-39.06-2.18-17.56-19.08-18.67-25.75-29.56zm-853.29 1596.1c-15.23-.49-30.18 11.27-43.62.76-10.3 6.97-19.2 12.99-30.46 20.6-.63 15.48 6.57 30.63 20.56 45.73l33.88 2.23c5.78-10.75 5.98-22.4 17.7-28.69 9.67-5.17 11.41-16.42 7.19-27.31-1.63-4.18-3.28-8.34-5.25-13.32zm1280.96 3030.1c-10.23-9.98-26.5-11.02-38.18-1.95-3.19 2.48-5.45 7.61-5.95 11.79-.99 8.3.26 16.86-.71 25.15-1.65 14.12 2.2 25.68 13.33 34.85 9.52-5.45 19.55-10.29 28.57-16.57 10.31-7.19 15.38-18.25 17.59-30.4.45-2.43-.66-5.73-2.16-7.82-3.79-5.3-7.84-10.53-12.49-15.05zm-30.01-1673.19c-.5-2.41-1.39-4.61-2.46-6.69-3.84-18.08-19.9-31.08-38.42-32.82-17.83-1.67-31.8 9.42-37.55 24.8-14.55 12.96-21.38 32.14-12.37 51 10.64 22.31 45.31 29.23 65.88 19.81 11.33-5.2 17.55-16.84 20.71-29.4 4.47-8.05 6.16-17.35 4.21-26.7zm141.35-2.31c-6.79-6.64-18.35-7.07-25.09 0-8.2 8.57-17.4 20.07-10.29 32.37 2.19 3.79 5.15 6.09 8.7 7.84 1.49 2.01 3.26 3.8 5.28 4.98 7.19 4.21 15.24 2.46 21.27-2.74 6.13-5.3 12.14-12.01 12.02-20.73-.13-9.3-5.57-15.57-11.89-21.72zm-446.1 519.37c-12.87-5.68-25.66-2.88-36.22 6.03-9.49 8.02-12.09 21.51-9.68 33.1 3.05 14.66 16.68 23.42 29.44 28.63 9.5 3.89 19.94-5.8 19.79-15.08-.07-4.89-.15-9.79-.22-14.69.05.05.12.11.17.17 1.65 1.89 4.45 2.81 6.61 3.94 5.84 3.03 11.28-.86 12.03-6.89 1.78-14.27-8.95-29.49-21.92-35.21zm1640.94 727.46c.07-3.58-.12-7.19-.21-10.36-.27-9.63-8.09-18.63-18.23-18.23-4.34.17-8.7.34-13.04.5-4.44-.88-8.93-1.32-13.19-1.35-10.1-.07-19.47 8.73-19.08 19.08.4 10.48 2.73 20.26 9.86 28.25.64.71 1.38 1.28 2.08 1.93 2.74 7.27 6.97 13.98 11.05 18.36 7.01 7.55 20.12 7.38 27.16 0 10.32-10.78 16.39-24.12 13.6-38.18zM2714.07 7.81c-4.85-9.47-18.08-10.05-25.24-3.25-7.73 7.35-18.31 9.81-25.62 18.09-5.77 6.52-5.73 14.98 0 21.52-4.86-5.55-3.31-6.19-2.42-1.46.18.97.36 1.95.54 2.93 1.26 6.72 9.37 10.88 15.85 9.27 4.04 4.44 9.38 7.5 14.72 10.17 7.53 3.77 18.38 2.53 22.49-5.9 4-8.22 7.82-15.94 8.6-25.14.78-9.16-4.94-18.44-8.92-26.23zm73.61 1148.51c-5.84-34.68-40.65-51.13-69.65-29.35-4.74 3.55-8.7 7.63-11.94 12.01-4.1 2.91-6.09 6.71-6.25 10.81a45.234 45.234 0 00-3.36 13.26c-2.79 5.16-2.28 11.82 1.71 16.27 3.09 9.59 9.94 18.37 21.2 24.75 24.79 14.02 52.55.52 56.19-25.7 1.24-.51 2.5-.93 3.74-1.5 7.83-3.61 9.62-13.03 8.36-20.55zm-216.23 142.91c1.74-3.13 2.34-6.95 1.63-10.45-1.27-6.21-5.55-13-12.03-14.79-3.7-.35-4.37-.5-2.05-.43-.88-.36-1.71-.62-2.65-.82-1.56-.32-3.18-.57-4.77-.56-8.67.03-12.04 7.58-10.49 13.99-6.06.98-11.21 4.55-12.93 10.82-.86 3.06-.61 6.51.53 9.6-.79 3.87-1.12 7.98-1.16 11.93-.08 8.18 7.02 15.52 15.3 15.3 3.9-.1 7.58-1.08 11.14-2.41 7.83 3.11 17.14-.9 19.69-9.22.66-2.17.72-4.18.47-6.09 2.4-5.52 1.47-12.52-2.68-16.87zM3615.74 247.48c-2.79-.03-5.55.43-8.26 1.27-1.81-.62-3.72-1.01-5.66-1.12 5.26.3 1.08.09-.35-.29-.81-.22-5.62-2.07-4.45-1.55-1.85-.82-3.61-1.79-5.38-2.78-1.03-.58-2.03-1.22-3.01-1.87-.2-.19-.3-.28-.74-.68-10.95-10.07-29.84-3.39-29.76 12.33.08 14.63 3.16 27.86 14.2 38.19 5.48 5.13 13.91 6.75 20.53 2.65 12.67-7.85 31.27-20.51 31.55-37 3.89-6.09-2.55-12.68-8.67-9.15zm1693.88 1097.57c-6.74-9.61-18.78-10.83-30.3-10.1-5.9-.73-11.97-.6-17.64.06-5.22.61-10.02 2.68-13.44 6.06-7.62 3.2-14.37 7.99-19.65 15.41-16.75 23.53 8.82 60.1 35.25 58.95 21.19-.92 40.49-19.07 45.78-39.1 1.33-5.06 1.34-10.25.38-15.24 2.64-4.59 2.61-11.77-.38-16.04z"/></g></svg>