<svg height="512pt" viewBox="0 0 512.00038 512" width="512pt" xmlns="http://www.w3.org/2000/svg"><path d="m420.992188 76c0 8.28125-6.714844 15-15 15-8.285157 0-15-6.71875-15-15 0-8.285156 6.714843-15 15-15 8.285156 0 15 6.714844 15 15zm0 0"/><path d="m360.992188 76c0 8.28125-6.714844 15-15 15-8.28125 0-15-6.71875-15-15 0-8.285156 6.71875-15 15-15 8.285156 0 15 6.714844 15 15zm0 0"/><path d="m300.992188 76c0 8.28125-6.714844 15-14.996094 15-8.285156 0-15-6.71875-15-15 0-8.285156 6.714844-15 15-15 8.28125 0 14.996094 6.714844 14.996094 15zm0 0"/><path d="m498.808594 435.171875-16.375-16.375-.441406-363.800781c0-30.324219-24.671876-54.996094-54.996094-54.996094h-372c-30.324219 0-54.996094 24.671875-54.996094 54.996094v372c0 30.324218 24.671875 54.996094 54.996094 54.996094h363.355468l16.820313 16.816406c17.582031 17.585937 46.046875 17.589844 63.636719 0 17.585937-17.582032 17.589844-46.050782 0-63.636719zm-443.8125-405.171875h372c13.78125 0 24.996094 11.214844 24.996094 25.015625l.078124 65.980469h-422.070312v-66c0-13.78125 11.214844-24.996094 24.996094-24.996094zm0 421.992188c-13.78125 0-24.996094-11.214844-24.996094-24.996094v-276h422.109375l.289063 237.765625-36.792969-36.792969c24.40625-68.242188-26.507813-140.257812-98.898438-140.257812-57.894531 0-105 47.101562-105 104.996093 0 72.492188 72.09375 123.277344 140.261719 98.898438l36.382812 36.386719zm261.710937-60.285157c-41.351562 0-75-33.644531-75-75s33.644531-75 75-75 75 33.644531 75 75-33.644531 75-75 75zm160.886719 85.890625c-5.859375 5.863282-15.347656 5.863282-21.210938 0l-76.828124-76.832031c8.039062-6.023437 15.1875-13.171875 21.210937-21.210937l76.832031 76.828124c5.863282 5.863282 5.863282 15.351563-.003906 21.214844zm0 0"/><path d="m76 210.996094h149.996094c8.285156 0 15-6.714844 15-15s-6.714844-15-15-15h-149.996094c-8.285156 0-15 6.714844-15 15s6.714844 15 15 15zm0 0"/><path d="m165.996094 240.996094h-89.996094c-8.285156 0-15 6.714844-15 15 0 8.28125 6.714844 15 15 15h89.996094c8.285156 0 15-6.71875 15-15 0-8.285156-6.714844-15-15-15zm0 0"/><path d="m165.996094 300.996094h-89.996094c-8.285156 0-15 6.714844-15 14.996094 0 8.285156 6.714844 15 15 15h89.996094c8.285156 0 15-6.714844 15-15 0-8.28125-6.714844-14.996094-15-14.996094zm0 0"/><path d="m165.996094 360.992188h-89.996094c-8.285156 0-15 6.71875-15 15 0 8.285156 6.714844 15 15 15h89.996094c8.285156 0 15-6.714844 15-15 0-8.28125-6.714844-15-15-15zm0 0"/></svg>