<svg width="18" height="19" viewBox="0 0 18 19" xmlns="http://www.w3.org/2000/svg">
	<path d="M14.2875 13.1563C15.3 11.8063 15.8625 10.2313 15.8625 8.43135C15.8625 4.04385 12.375 0.443848 7.9875 0.443848C3.6 0.443848 0 4.04385 0 8.43135C0 12.8188 3.6 16.4188 7.9875 16.4188C9.7875 16.4188 11.475 15.8563 12.7125 14.8438L16.0875 18.2188C16.3125 18.4438 16.65 18.5563 16.875 18.5563C17.1 18.5563 17.4375 18.4438 17.6625 18.2188C18.1125 17.7688 18.1125 17.0938 17.6625 16.6438L14.2875 13.1563ZM7.9875 14.0563C4.8375 14.0563 2.25 11.5813 2.25 8.43135C2.25 5.28135 4.8375 2.69385 7.9875 2.69385C11.1375 2.69385 13.725 5.28135 13.725 8.43135C13.725 11.5813 11.1375 14.0563 7.9875 14.0563Z"/>
</svg>
