<svg width="17" height="15" viewBox="0 0 17 15" xmlns="http://www.w3.org/2000/svg">
	<path d="M16.9656 0.294443C16.9518 0.231754 16.9218 0.173823 16.8784 0.126545C16.835 0.0792675 16.7798 0.0443317 16.7185 0.0252939C16.4952 -0.0190063 16.2641 -0.00256909 16.0493 0.0728907C16.0493 0.0728907 1.1549 5.42641 0.30439 6.0191C0.120802 6.1466 0.059606 6.22083 0.029008 6.30809C-0.117749 6.73023 0.340088 6.91608 0.340088 6.91608L4.17901 8.1672C4.24383 8.17843 4.31039 8.17436 4.37336 8.1553C5.24654 7.60397 13.1595 2.60686 13.6162 2.43914C13.6882 2.41761 13.7415 2.44197 13.7296 2.49183C13.5426 3.13269 6.70901 9.20526 6.67161 9.24209C6.65351 9.25735 6.63936 9.27676 6.63038 9.29866C6.62141 9.32057 6.61786 9.34432 6.62005 9.36789L6.26194 13.1156C6.26194 13.1156 6.11178 14.2817 7.27847 13.1156C8.10575 12.2877 8.8996 11.6021 9.29624 11.2689C10.6165 12.1801 12.037 13.1881 12.6496 13.7151C12.7524 13.8149 12.8743 13.8929 13.008 13.9445C13.1416 13.9961 13.2843 14.0202 13.4275 14.0154C14.0095 13.9933 14.1715 13.3541 14.1715 13.3541C14.1715 13.3541 16.8857 2.43064 16.9769 0.967033C16.9854 0.823675 16.9979 0.731881 16.999 0.633288C17.0036 0.519337 16.9923 0.405303 16.9656 0.294443Z"/>
</svg>
